<?xml version="1.0" encoding="UTF-8" standalone="no"?>
<!DOCTYPE svg PUBLIC "-//W3C//DTD SVG 1.1//EN" "http://www.w3.org/Graphics/SVG/1.1/DTD/svg11.dtd">
<svg width="100%" height="100%" viewBox="0 0 251 251" version="1.1" xmlns="http://www.w3.org/2000/svg" xmlns:xlink="http://www.w3.org/1999/xlink" xml:space="preserve" xmlns:serif="http://www.serif.com/" style="fill-rule:evenodd;clip-rule:evenodd;stroke-linecap:round;stroke-linejoin:round;">
    <g transform="matrix(1,0,0,1,-307.132,-893.344)">
        <g transform="matrix(4.16667,0,0,4.16667,-2817.87,-2142.15)">
            <path id="path1977" d="M754,732.52L754,756.52L778,732.52L754,732.52Z" style="fill:rgb(72,72,72);fill-rule:nonzero;stroke:rgb(0,94,128);stroke-width:8px;"/>
            <path id="path1981" d="M754,784.52L773,784.52C785,784.52 788,772.52 780,764.52L760,742.52" style="fill:none;fill-rule:nonzero;stroke:rgb(0,94,128);stroke-width:8px;"/>
            <path id="path1981-9" d="M806,732.52L806,751.52C806,763.52 794,766.52 786,758.52L764,738.52" style="fill:none;fill-rule:nonzero;stroke:rgb(0,94,128);stroke-width:8px;"/>
            <path id="path1977-2" d="M754,732.52L754,756.52L778,732.52L754,732.52Z" style="fill:rgb(0,186,254);fill-rule:nonzero;stroke:rgb(0,186,254);stroke-width:3px;"/>
            <path id="path1981-7" d="M754,784.52L773,784.52C785,784.52 788,772.52 780,764.52L760,742.52" style="fill:none;fill-rule:nonzero;stroke:rgb(0,186,254);stroke-width:3px;"/>
            <path id="path1981-9-0" d="M806,732.52L806,751.52C806,763.52 794,766.52 786,758.52L764,738.52" style="fill:none;fill-rule:nonzero;stroke:rgb(0,186,254);stroke-width:3px;"/>
            <circle id="path2031-9" cx="778" cy="756.52" r="5" style="fill:rgb(0,186,254);"/>
            <path id="path2069" d="M764,738.52L778,751.52L773,756.52L760,743.52L764,738.52Z" style="fill:rgb(0,186,254);fill-rule:nonzero;stroke:rgb(0,186,254);stroke-width:3px;"/>
        </g>
    </g>
</svg>
