<?xml version="1.0" encoding="UTF-8" standalone="no"?>
<!DOCTYPE svg PUBLIC "-//W3C//DTD SVG 1.1//EN" "http://www.w3.org/Graphics/SVG/1.1/DTD/svg11.dtd">
<svg width="100%" height="100%" viewBox="0 0 259 259" version="1.1" xmlns="http://www.w3.org/2000/svg" xmlns:xlink="http://www.w3.org/1999/xlink" xml:space="preserve" xmlns:serif="http://www.serif.com/" style="fill-rule:evenodd;clip-rule:evenodd;stroke-linecap:round;stroke-linejoin:round;">
    <g transform="matrix(1,0,0,1,-1260.7,-1318.11)">
        <g transform="matrix(0.292419,0,0,0.31514,821.913,1242.65)">
            <g id="path2352" transform="matrix(14.3692,0,0,13.3332,-10777.9,-13640)">
                <path d="M864,1098.52C872,1098.52 876,1090.52 872,1082.52L860,1046.52L896,1058.52C904,1062.52 912,1058.52 912,1050.52" style="fill:none;fill-rule:nonzero;stroke:rgb(31,39,97);stroke-width:8px;"/>
            </g>
            <g id="path2352-9" transform="matrix(14.3692,0,0,13.3332,-10777.9,-13640)">
                <path d="M864,1098.52C872,1098.52 876,1090.52 872,1082.52L860,1046.52L896,1058.52C904,1062.52 912,1058.52 912,1050.52" style="fill:none;fill-rule:nonzero;stroke:rgb(52,67,166);stroke-width:2.5px;"/>
            </g>
            <g id="path2114" transform="matrix(3.80185,0,0,3.52774,-10777.9,-12539.7)">
                <path d="M3340.87,3628.13C3332.58,3628.27 3325.87,3635.19 3325.99,3643.48L3325.99,3658.57C3325.97,3659.19 3325.99,3659.81 3326.04,3660.43C3326.08,3660.78 3326.1,3661.13 3326.1,3661.48C3326.1,3669.77 3319.28,3676.59 3310.98,3676.59C3306.63,3676.59 3302.48,3674.69 3299.62,3671.41C3299.22,3670.92 3298.8,3670.47 3298.35,3670.04L3287.66,3659.35C3284.81,3656.41 3280.89,3654.75 3276.81,3654.75C3276.8,3654.75 3276.79,3654.75 3276.79,3654.75C3268.49,3654.75 3261.67,3661.58 3261.67,3669.87C3261.67,3673.96 3263.33,3677.88 3266.26,3680.72L3276.98,3691.41C3277.33,3691.79 3277.7,3692.15 3278.1,3692.49C3278.44,3692.77 3278.77,3693.07 3279.09,3693.38C3284.95,3699.24 3284.95,3708.89 3279.09,3714.76C3275.93,3717.91 3271.55,3719.5 3267.11,3719.12C3267.1,3719.13 3267.1,3719.15 3267.1,3719.16C3266.57,3719.1 3266.04,3719.06 3265.5,3719.06L3250.39,3719.06C3242.09,3719.06 3235.26,3725.88 3235.26,3734.18C3235.26,3742.48 3242.09,3749.31 3250.39,3749.31L3265.5,3749.31C3266.02,3749.31 3266.53,3749.28 3267.04,3749.22C3267.04,3749.24 3267.05,3749.25 3267.05,3749.26C3267.5,3749.22 3267.95,3749.19 3268.41,3749.19C3276.7,3749.19 3283.52,3756.01 3283.52,3764.31C3283.52,3768.76 3281.54,3772.99 3278.14,3775.86C3278.14,3775.86 3278.14,3775.86 3278.14,3775.87C3277.74,3776.2 3277.35,3776.55 3276.98,3776.92L3266.26,3787.64C3263.41,3790.48 3261.81,3794.33 3261.81,3798.35C3261.81,3806.64 3268.64,3813.47 3276.93,3813.47C3280.96,3813.47 3284.82,3811.87 3287.66,3809.01L3298.35,3798.32C3298.72,3797.96 3299.08,3797.58 3299.41,3797.18C3299.41,3797.18 3299.41,3797.18 3299.42,3797.18C3299.7,3796.84 3300,3796.51 3300.31,3796.19C3303.14,3793.35 3306.99,3791.76 3311,3791.76C3315.01,3791.76 3318.86,3793.35 3321.7,3796.19C3324.84,3799.34 3326.43,3803.73 3326.05,3808.16C3326.06,3808.16 3326.07,3808.16 3326.07,3808.16C3326.02,3808.69 3325.99,3809.22 3325.99,3809.76L3325.99,3824.88C3325.98,3825.08 3325.98,3825.29 3325.98,3825.49C3325.98,3833.79 3332.81,3840.61 3341.1,3840.61C3349.39,3840.61 3356.22,3833.79 3356.22,3825.49C3356.22,3825.29 3356.22,3825.08 3356.21,3824.88L3356.21,3809.76C3356.22,3809.25 3356.2,3808.74 3356.16,3808.23C3356.17,3808.23 3356.18,3808.23 3356.19,3808.23C3356.15,3807.78 3356.12,3807.33 3356.12,3806.89C3356.12,3798.59 3362.94,3791.77 3371.24,3791.77C3375.68,3791.77 3379.91,3793.74 3382.78,3797.14C3382.78,3797.14 3382.78,3797.14 3382.78,3797.14C3383.12,3797.56 3383.48,3797.95 3383.86,3798.33L3394.55,3809.02C3397.4,3811.98 3401.34,3813.66 3405.45,3813.66C3413.74,3813.66 3420.57,3806.83 3420.57,3798.53C3420.57,3794.43 3418.9,3790.5 3415.94,3787.65L3405.23,3776.93C3404.87,3776.56 3404.49,3776.21 3404.09,3775.88C3404.1,3775.88 3404.1,3775.87 3404.11,3775.87C3403.77,3775.59 3403.45,3775.29 3403.14,3774.98C3397.27,3769.12 3397.27,3759.47 3403.14,3753.6C3406.29,3750.46 3410.67,3748.87 3415.1,3749.25C3415.1,3749.24 3415.11,3749.22 3415.11,3749.21C3415.64,3749.27 3416.16,3749.31 3416.7,3749.31L3431.82,3749.31C3440.12,3749.31 3446.95,3742.49 3446.95,3734.19C3446.95,3725.89 3440.12,3719.06 3431.82,3719.06L3416.69,3719.06C3416.18,3719.06 3415.67,3719.09 3415.16,3719.14C3415.16,3719.13 3415.16,3719.12 3415.16,3719.11C3414.71,3719.15 3414.26,3719.18 3413.81,3719.18C3405.52,3719.18 3398.7,3712.36 3398.7,3704.06C3398.7,3699.64 3400.65,3695.43 3404.02,3692.57C3404.44,3692.21 3404.85,3691.82 3405.23,3691.42L3415.94,3680.73C3418.86,3677.88 3420.51,3673.97 3420.51,3669.89C3420.51,3661.6 3413.69,3654.77 3405.39,3654.77C3405.24,3654.77 3405.1,3654.78 3404.95,3654.78C3401.02,3654.89 3397.29,3656.54 3394.55,3659.36L3383.86,3670.05C3383.42,3670.46 3383.01,3670.9 3382.63,3671.36C3382.4,3671.64 3382.16,3671.91 3381.91,3672.16C3379.08,3675 3375.23,3676.6 3371.22,3676.6C3367.21,3676.6 3363.36,3675 3360.52,3672.16C3357.46,3669.09 3355.87,3664.83 3356.15,3660.49C3356.16,3660.37 3356.17,3660.24 3356.18,3660.11C3356.21,3659.6 3356.22,3659.09 3356.21,3658.57L3356.21,3643.49C3356.21,3643.41 3356.21,3643.33 3356.21,3643.26C3356.21,3634.96 3349.38,3628.14 3341.09,3628.14C3341.01,3628.14 3340.94,3628.14 3340.87,3628.14L3340.87,3628.13Z" style="fill:rgb(52,67,166);fill-rule:nonzero;stroke:rgb(31,39,97);stroke-width:11.34px;"/>
            </g>
            <g id="path2400-1" transform="matrix(14.3692,0,0,13.3332,-10777.9,-13640)">
                <circle cx="884" cy="1070.52" r="6" style="fill:rgb(52,67,166);stroke:rgb(31,39,97);stroke-width:3px;"/>
            </g>
        </g>
    </g>
</svg>
