<?xml version="1.0" encoding="UTF-8" standalone="no"?>
<!DOCTYPE svg PUBLIC "-//W3C//DTD SVG 1.1//EN" "http://www.w3.org/Graphics/SVG/1.1/DTD/svg11.dtd">
<svg width="100%" height="100%" viewBox="0 0 80 78" version="1.1" xmlns="http://www.w3.org/2000/svg" xmlns:xlink="http://www.w3.org/1999/xlink" xml:space="preserve" xmlns:serif="http://www.serif.com/" style="fill-rule:evenodd;clip-rule:evenodd;stroke-linecap:round;stroke-linejoin:round;stroke-miterlimit:1.5;">
    <g transform="matrix(1,0,0,1,-248.684,-1661.05)">
        <g transform="matrix(1,0,0,1,-1748.09,677.924)">
            <g transform="matrix(0.547807,0,0,0.547807,983.135,401.888)">
                <circle cx="1922.53" cy="1131.4" r="36.434" style="fill:rgb(255,106,106);"/>
            </g>
            <g transform="matrix(1,0,0,1,110.433,-14.1773)">
                <path d="M1899.03,1026.02C1903.64,1017.38 1910.65,1009.15 1921.01,1007.94C1928.32,1007.08 1937.2,1008.7 1943.23,1013.04C1945.91,1014.97 1947.91,1017.77 1949.65,1020.55C1954.57,1028.41 1957.34,1038.88 1953.08,1047.64C1946.86,1060.44 1930.45,1067.21 1916.98,1062.49C1903.43,1057.75 1892.25,1041.07 1898.58,1026.99L1899.03,1026.02Z" style="fill:none;stroke:black;stroke-width:20.83px;"/>
            </g>
        </g>
    </g>
</svg>
