<?xml version="1.0" encoding="UTF-8" standalone="no"?>
<!DOCTYPE svg PUBLIC "-//W3C//DTD SVG 1.1//EN" "http://www.w3.org/Graphics/SVG/1.1/DTD/svg11.dtd">
<svg width="100%" height="100%" viewBox="0 0 310 309" version="1.1" xmlns="http://www.w3.org/2000/svg" xmlns:xlink="http://www.w3.org/1999/xlink" xml:space="preserve" xmlns:serif="http://www.serif.com/" style="fill-rule:evenodd;clip-rule:evenodd;stroke-linecap:round;stroke-linejoin:round;stroke-miterlimit:1.5;">
    <g transform="matrix(1,0,0,1,-3451.95,-1075.68)">
        <g transform="matrix(4.979e-17,1,1,-4.979e-17,3094.95,-805.659)">
            <g transform="matrix(-1,0,0,1,3149.32,-521.134)">
                <path d="M985.82,905.154C985.82,904.931 985.82,905.601 985.82,905.825L985.82,918.641C985.82,927.284 985.665,935.911 985.665,944.559C985.665,959.65 986.83,974.655 986.226,989.149C986.084,992.561 985.757,995.959 985.586,999.368C985.557,999.943 985.176,1002.06 985.53,1002.72C986.514,1004.55 986.56,1006.9 987.45,1008.83C988.423,1010.95 990.392,1012.57 991.141,1014.81C992.068,1017.59 991.964,1021.52 992.343,1024.44C992.42,1025.03 992.235,1028.05 992.839,1028.55C993.184,1028.84 992.562,1027.7 992.405,1027.28C992.127,1026.54 991.953,1025.76 991.721,1025C990.826,1022.07 990.321,1019.13 989.717,1016.13C988.635,1010.76 988.077,1005.41 987.438,999.971C987.424,999.848 987.001,995.021 986.906,995.019C986.685,995.015 986.996,998.937 987.032,999.162C987.728,1003.54 988.187,1007.96 988.94,1012.34C989.923,1018.05 991.833,1022.53 994.232,1027.67C995.79,1031.01 996.694,1034.65 998.364,1037.94C998.834,1038.86 1000.57,1039.4 1001.34,1040.04C1004.35,1042.53 1007.27,1045.77 1011.06,1047.07C1012.65,1047.62 1014.47,1047.52 1016.12,1047.65C1018.71,1047.85 1021.38,1047.42 1023.96,1047.72C1026.6,1048.01 1028.92,1048.86 1031.68,1048.86C1032.38,1048.86 1040.19,1048.42 1036.19,1049.98C1035.96,1050.07 1034.67,1050.47 1034.5,1050.52C1033.93,1050.66 1033.03,1050.79 1032.45,1050.85C1031.08,1051 1029.7,1051.03 1028.33,1051.21C1026.39,1051.46 1023.47,1053.04 1021.62,1052.89C1020.88,1052.83 1023,1052.35 1023.7,1052.12C1024.77,1051.76 1026.06,1051.3 1027.13,1051.06C1031.6,1050.07 1036.2,1049.52 1040.71,1048.76C1045.32,1047.99 1051.05,1047.87 1055.35,1045.89C1057.05,1045.1 1058.37,1043.25 1059.85,1042.11C1061.4,1040.92 1063.44,1040.53 1065.11,1039.56C1067.65,1038.09 1068.61,1036.4 1071.47,1035.51" style="fill:none;stroke:rgb(0,179,254);stroke-width:20.83px;"/>
                <path d="M1114.54,1062.5C1113.09,1063.67 1112.13,1069.27 1111.3,1071.1C1109.85,1074.29 1105.12,1079.2 1104.82,1082.77C1104.44,1087.35 1105.21,1092.05 1104.13,1096.58C1103.36,1099.81 1102.7,1102.63 1100.01,1101.23C1099.53,1100.99 1098.65,1101 1098.32,1100.56C1097.92,1100.04 1098.26,1099.35 1098.02,1098.81C1097.8,1098.29 1097.98,1099.94 1097.98,1100.51C1097.98,1101.71 1098.02,1101.63 1097.8,1102.92C1097.25,1106.14 1095.92,1109.18 1095.44,1112.4C1094.56,1118.41 1096.89,1123.3 1099.03,1128.61C1099.78,1130.45 1099.96,1132.72 1100.98,1134.4C1102.18,1136.41 1105.19,1137.97 1106.81,1139.77C1109.04,1142.26 1110.11,1146.25 1113.07,1147.99C1116.28,1149.86 1119.73,1149.05 1122.98,1150.88C1127.16,1153.23 1130.74,1155.43 1135.06,1157.31C1135.89,1157.67 1137.17,1158.9 1138.04,1158.99C1141.78,1159.38 1145.61,1158.71 1149.37,1159.08C1153.47,1159.49 1157.38,1160.49 1161.53,1160.78C1163.06,1160.89 1160.89,1161.56 1161.07,1162.01C1161.19,1162.31 1164.82,1162.03 1165.23,1162.03C1170.15,1162.03 1175.04,1162.41 1179.96,1162.6C1198.73,1163.32 1218,1161.99 1237.09,1161.99" style="fill:none;stroke:rgb(0,179,254);stroke-width:20.83px;"/>
                <path d="M1142.16,1028.65C1142.16,1022.53 1142.99,1016.37 1137.7,1012.03C1135.48,1010.21 1132.74,1009.02 1130.33,1007.46C1127.35,1005.52 1124.95,1002.56 1121.74,1000.98C1120.82,1000.52 1119.69,1000.65 1118.69,1000.54C1118.58,1000.53 1116.99,1000.44 1117.03,1000.37C1119.58,996.216 1126.42,992.574 1130.21,989.916C1140.9,982.412 1151.19,978.027 1159.33,967.501C1161.45,964.766 1163.92,962.492 1166.24,959.948C1166.56,959.606 1167.89,957.94 1167.73,957.326C1167.17,955.255 1164.93,953.147 1163.58,951.569C1159.72,947.082 1155.58,943.937 1150.92,940.405C1143.27,934.598 1138.73,929.374 1135,920.465C1134.1,918.29 1133.38,915.981 1132.3,913.885C1131.53,912.397 1128.75,911.027 1130.04,908.911C1130.8,907.646 1134.38,908.079 1135.42,907.98C1140.22,907.528 1144.98,906.962 1149.69,905.954C1170.61,901.478 1193.44,904.631 1214.79,904.124C1216.37,904.086 1217.95,904.036 1219.54,903.96C1221.15,903.882 1222.77,903.752 1224.39,903.662C1225.61,903.594 1226.83,903.52 1228.05,903.486C1230.71,903.412 1237.34,902.651 1239.95,904.838C1241.24,905.919 1240.49,909.632 1240.49,911.058C1240.49,917.521 1239.54,924.026 1239.54,930.548C1239.54,937.914 1239.33,945.266 1240.1,952.599C1241.06,961.801 1243.35,970.408 1242.48,979.854C1242.28,982.065 1240.56,984.023 1240,986.169C1239.34,988.714 1239.22,991.848 1239.16,994.479C1239.04,999.893 1239.73,1006.19 1237.86,1011.36C1237.46,1012.45 1237.08,1014.89 1236.07,1015.55C1235.12,1016.17 1234.36,1014.05 1234.13,1013.67C1232,1010.03 1229.98,1006.35 1227.55,1002.89C1224.82,999.007 1222.06,993.636 1218.31,990.598C1216.41,989.059 1213.9,988.189 1211.89,986.673C1206.48,982.588 1203.87,981.175 1197.54,983.006C1183.05,987.195 1175,999.272 1165.83,1009.91C1163.24,1012.91 1160.59,1014.66 1157.11,1016.35C1156.47,1016.66 1155.29,1017.88 1154.46,1017.49C1153.83,1017.2 1153.27,1015.41 1153.03,1014.94C1151.96,1012.89 1150.79,1010.81 1149.33,1009.01C1147.43,1006.68 1145.04,1005.1 1142.77,1003.21C1142.25,1002.78 1140.74,1002 1140.6,1001.21C1140.5,1000.57 1143.68,999.543 1144.11,999.268C1146.69,997.635 1148.86,994.792 1150.82,992.536C1154.53,988.274 1157.95,983.419 1162.33,979.799C1166.62,976.257 1171.69,973.744 1176.1,970.347C1178.57,968.447 1181.12,965.055 1183.95,963.767C1184.75,963.406 1183.56,965.491 1183.14,966.257C1181.78,968.744 1180.21,970.979 1178.44,973.195C1173.42,979.473 1168.4,985.223 1162.76,990.851C1161.15,992.447 1159.51,994.036 1157.99,995.706C1157.39,996.364 1157.4,996.417 1156.95,997.106C1156.77,997.391 1156.25,998.269 1156.4,997.965C1159.02,992.786 1164.71,988.025 1168.91,984.266C1175.29,978.557 1182.14,971.353 1190.53,968.649C1196.75,966.644 1203.93,967.166 1210.36,967.166C1217.71,967.166 1226.82,964.566 1229.18,973.329C1229.71,975.305 1230.15,977.323 1230.25,979.372C1230.3,980.44 1230.26,981.51 1230.27,982.579C1230.27,982.868 1230.28,984.184 1230.24,984.526C1229.68,989.71 1227.53,984.858 1226.49,982.761C1224.79,979.339 1223.1,975.795 1220.76,972.748C1219.47,971.074 1217.83,969.549 1215.63,969.326C1214.58,969.219 1212.3,970.081 1212.71,971.564C1213.09,972.944 1217.28,967.835 1217.31,967.795C1219.66,964.003 1221.63,959.859 1223.55,955.845C1225.94,950.842 1228.18,945.732 1230.1,940.527C1230.68,938.94 1232.27,935.726 1231.9,933.776C1231.73,932.864 1230.41,932.026 1229.96,931.196C1229.09,929.555 1228.42,927.611 1228.03,925.8C1227.7,924.293 1228.11,919.971 1227.03,918.812C1226.5,918.247 1226.82,920.347 1226.68,921.108C1226.5,922.11 1225.65,924.23 1224.2,923.636C1223.16,923.209 1222.97,921.865 1221.72,921.529C1217.48,920.393 1211.74,921.584 1207.56,922.026C1197.83,923.053 1188.21,924.872 1178.41,925.159C1172.88,925.321 1167.46,925.608 1161.93,925.608C1159.82,925.608 1157.81,923.773 1156.37,922.399C1156.17,922.209 1154.79,921.302 1155.12,920.831C1155.42,920.405 1157.33,920.338 1157.77,920.252C1160.72,919.683 1163.62,919.009 1166.58,918.503C1168.96,918.095 1171.35,917.702 1173.74,917.368C1175.6,917.108 1175.48,917.149 1177.37,916.903C1180.36,916.515 1181.21,916.615 1181.21,919.704L1181.21,929.109C1181.21,931.406 1181.42,933.839 1181.19,936.13C1180.77,940.355 1173.04,939.339 1170.41,939.339C1169.12,939.339 1167.56,939.533 1166.34,938.922C1165.9,938.7 1163,936.177 1164.33,935.419C1167.08,933.851 1170.23,937.61 1171.54,939.386C1174.48,943.379 1176.58,947.447 1178.54,951.979C1179.97,955.278 1180.29,958.314 1184.11,958.036C1187.57,957.785 1189.82,955.084 1192.17,952.843C1197.45,947.794 1202.8,942.826 1207.89,937.584C1209.58,935.851 1211.12,934.038 1212.69,932.202C1212.77,932.11 1213.61,930.876 1214.06,931.044C1215.36,931.535 1213.38,933.752 1212.96,935.084C1211.78,938.882 1211.16,942.744 1210.75,946.694C1210.38,950.256 1210.16,953.829 1209.9,957.399C1209.9,957.418 1209.79,961.538 1209.31,961.666C1207.47,962.151 1204.25,957.602 1203.32,956.566C1200.57,953.504 1197.83,950.5 1194.67,947.839C1192.74,946.207 1190.6,944.724 1189.95,942.13C1189.26,939.341 1188.85,936.226 1189.4,933.362C1189.58,932.406 1190.09,931.176 1190.95,930.593C1191.14,930.463 1192.6,930.209 1192.22,930.598" style="fill:none;stroke:rgb(0,179,254);stroke-width:20.83px;"/>
            </g>
            <g transform="matrix(-1,0,0,1,3149.32,-521.134)">
                <path d="M1071.07,1022.86C1071.07,1018.8 1072.26,1015.52 1075.04,1012.51C1075.99,1011.48 1076.98,1010.48 1077.97,1009.49C1078.35,1009.12 1079.55,1008.12 1079.07,1008.33C1078.67,1008.5 1079.91,1008.58 1080.33,1008.54C1081.29,1008.45 1082.17,1007.83 1082.87,1007.21C1086.85,1003.71 1090.41,997.587 1095.24,995.248C1097.69,994.06 1101,994.176 1103.65,994.088C1106.25,994.003 1109.11,993.597 1111.69,994.052C1115.67,994.755 1118.95,996.958 1122.37,998.949C1123.69,999.721 1125.36,999.702 1126.72,1000.52C1131.14,1003.19 1136.06,1007.31 1138.83,1011.73C1140.58,1014.52 1140.2,1018.23 1140.97,1021.32C1141.5,1023.45 1142.75,1025.37 1143.23,1027.44C1143.91,1030.4 1144.75,1036.99 1143.84,1040.19C1143.44,1041.57 1142.64,1042.82 1142.27,1044.22C1141.93,1045.51 1141.98,1046.95 1141.34,1048.14C1140.45,1049.8 1138.57,1050.88 1137.26,1052.18C1135.83,1053.62 1135.07,1055.57 1133.74,1057.06C1132.8,1058.11 1131.49,1058.84 1130.63,1059.94C1128.61,1062.54 1127.42,1066.52 1124.62,1068.55C1121.67,1070.69 1117.19,1070.74 1113.82,1071.7C1110.98,1072.51 1107.99,1074.38 1104.95,1074.03C1104.07,1073.93 1103.12,1072.76 1102.43,1072.26C1100.81,1071.07 1099.12,1069.94 1097.32,1069.04C1095.31,1068.03 1093.02,1067.67 1090.98,1066.68C1085.91,1064.19 1080.69,1059.91 1076.69,1055.84C1074.73,1053.84 1074.27,1050.94 1072.46,1049.02" style="fill:none;stroke:rgb(0,179,254);stroke-width:20.83px;"/>
            </g>
            <g transform="matrix(0.637716,-0.770272,0.770272,0.637716,399.377,2171.34)">
                <path d="M2349.61,158.368C2346.46,156.79 2336.14,153.248 2325.79,153.649C2310.49,154.241 2303.42,156.008 2289.61,167.76C2285.48,171.282 2283.02,176.473 2280.17,181.105C2272,194.404 2270.28,213.201 2275.47,227.928C2285.19,255.527 2320.59,268.689 2346.36,256.218C2360.81,249.223 2370.05,235.996 2375.3,221.21C2380.67,206.086 2378.16,185.574 2367.61,173.296C2363.83,168.903 2362.3,166.416 2357.54,163.109C2357.03,162.756 2353.7,160.421 2349.61,158.368Z" style="fill:none;stroke:black;stroke-width:20.83px;"/>
            </g>
            <path d="M2090.52,540.954C2110.03,550.156 2108.42,550.529 2128.86,547.624C2138.48,546.258 2149.3,542.154 2156.49,535.125C2169.87,522.044 2177.42,502.812 2178.96,484.472C2179.54,477.59 2179.03,470.698 2178.91,463.815C2178.74,454.54 2179.5,445.259 2179.23,435.979C2179,428.132 2177.86,420.331 2177.56,412.478C2177.21,403.272 2177.17,394.857 2177.56,385.674C2177.79,380.151 2174.26,374.002 2169.61,370.661C2167.95,369.471 2165.88,369.132 2163.85,368.967C2162.05,368.82 2160.32,368.963 2158.63,369.627C2147.22,374.103 2148.33,384.843 2148.74,395.101C2148.86,398.078 2149.06,401.058 2149.25,404.031C2150.13,417.592 2151.22,431.332 2150.7,444.932C2150.37,453.812 2150.48,463.135 2149.68,471.987C2148.31,487.151 2148.87,507.079 2132.57,514.333C2129.51,515.699 2126.12,516.383 2122.8,516.756C2118.55,517.232 2114.02,517.376 2109.77,516.92C2102.93,516.187 2100.72,517.788 2094.87,514.333" style="fill:none;stroke:black;stroke-width:20.83px;"/>
            <path d="M2026.26,455.553C2018.96,449.449 2011.36,443.723 2004.09,437.579C2002.53,436.256 2000.93,434.97 1999.39,433.621C1999.33,433.567 1998.03,432.485 1998.06,432.443C1998.84,431.152 2000.71,429.966 2001.77,428.905C2004.2,426.473 2006.53,423.948 2008.98,421.524C2011.67,418.846 2014.38,416.183 2017.04,413.474C2018.73,411.754 2020.41,410.022 2022.04,408.244C2029.77,399.816 2042.04,387.096 2033.21,375.573C2032.12,374.157 2030.81,372.823 2029.34,371.809C2027.15,370.31 2024.69,369.37 2022.12,368.764C2009.66,365.82 1996.29,368.563 1983.72,368.948C1965.06,369.52 1946.36,368.537 1927.69,368.478C1920.76,368.456 1913.7,368.122 1906.81,368.967C1902.53,369.492 1898.11,370.75 1895.63,374.531C1891.72,380.486 1891.72,388.264 1891.77,395.101C1891.88,409.312 1894.19,423.238 1894.85,437.397C1895.65,454.874 1896.54,472.362 1897.21,489.842C1897.37,494.04 1897.4,498.243 1897.56,502.44C1897.59,503.13 1897.38,506.407 1898.27,506.857C1906.87,511.196 1917.45,510.015 1925.06,504.393C1930.95,500.046 1934.93,493.629 1939.68,488.166C1943.02,484.323 1946.38,480.515 1949.95,476.881C1950.62,476.199 1951.3,475.519 1951.97,474.839C1952.12,474.689 1953.07,473.688 1953.1,473.709C1956,476.07 1958.16,479.791 1960.78,482.449C1968.9,490.692 1977.35,498.864 1985.7,506.89" style="fill:none;stroke:black;stroke-width:20.83px;"/>
            <path d="M2033.21,567.016C2041.42,582.294 2046.41,589.412 2037.5,607.762C2033.03,616.971 2024.96,621.483 2015.89,623.999C2004.42,627.177 1919.78,627.73 1908.46,627.932C1901.78,628.051 1894.88,634.532 1894.85,641.912C1894.82,649.024 1901.4,656.184 1908.46,656.265C1928.34,656.493 2024.67,657.745 2041.93,645.478C2046.31,642.371 2050.45,638.84 2054.09,634.899C2057.76,630.922 2061.34,626.779 2063.89,621.974C2066.62,616.85 2068.87,610.975 2070.11,605.3C2071.3,599.863 2071,593.608 2070.5,588.177C2069.16,573.873 2070.72,577.818 2063.89,565.155" style="fill:none;stroke:black;stroke-width:20.83px;"/>
            <g transform="matrix(-0.626573,0.257028,0.257028,0.626573,2432.43,-378.679)">
                <path d="M1008.25,985.401C1013.4,973.719 1023.83,963.846 1037.42,964.395C1042.33,964.593 1046.9,966.942 1051.09,969.347C1063.5,976.469 1070.5,986.47 1068.85,1000.87C1068.51,1003.89 1068.1,1007.07 1066.75,1009.83C1065.27,1012.84 1062.91,1015.45 1060.68,1017.91C1057.25,1021.69 1053.32,1025.64 1048.63,1027.81C1042.64,1030.6 1033.69,1029.91 1027.46,1028.2C1021.49,1026.57 1015.03,1023.21 1010.94,1018.47C1004.2,1010.65 1001.91,996.99 1007,987.859" style="fill:none;stroke:black;stroke-width:30.76px;"/>
            </g>
            <g transform="matrix(-1,0,0,1,3149.32,-521.134)">
                <path d="M1034.87,1054.86C1037.21,1054.67 1039.69,1054.42 1041.94,1053.78C1043.95,1053.2 1045.85,1052.29 1047.8,1051.58C1050.42,1050.62 1053.03,1049.76 1055.58,1048.62C1058.52,1047.32 1061.12,1046.29 1063.7,1044.39C1066.22,1042.54 1068.12,1040.16 1069.43,1037.33C1069.88,1036.35 1070.33,1035.37 1070.72,1034.37C1070.86,1034.01 1071,1033.65 1071.13,1033.29C1071.17,1033.18 1071.21,1033.08 1071.24,1032.97C1071.27,1032.91 1071.28,1032.74 1071.31,1032.79C1071.54,1033.1 1071.75,1033.42 1071.97,1033.73" style="fill:none;stroke:rgb(0,179,254);stroke-width:10.42px;"/>
            </g>
            <g transform="matrix(-1,0,0,1,3149.32,-521.134)">
                <path d="M1146,979.717C1138.65,982.878 1131.38,986.469 1123.57,988.342C1114.07,990.616 1103.88,991.508 1094.79,995.216C1089.71,997.291 1085.35,1000.34 1081.24,1003.96C1076.08,1008.51 1072.46,1014.47 1070.23,1020.93C1068.38,1026.27 1067.37,1032.17 1064.67,1037.17C1059.51,1046.73 1048.82,1052.39 1038.36,1054.25" style="fill:none;stroke:rgb(0,179,254);stroke-width:10.42px;"/>
            </g>
            <g transform="matrix(-1,0,0,1,3149.32,-521.134)">
                <path d="M1035.04,1054.71C1040.95,1054.75 1046.57,1053.83 1052.34,1052.61C1056.72,1051.68 1061.39,1050.29 1065.91,1050.95C1071.3,1051.75 1076,1055.18 1080.2,1058.4" style="fill:none;stroke:rgb(0,179,254);stroke-width:10.42px;"/>
            </g>
            <g transform="matrix(-0.707107,0.707107,0.707107,0.707107,2092.62,-1006.14)">
                <path d="M1118.97,1075.07C1124.21,1075.07 1130.06,1075.71 1134.48,1078.73C1138.25,1081.31 1140.91,1085.39 1143.32,1089.19" style="fill:none;stroke:rgb(0,179,254);stroke-width:10.42px;"/>
            </g>
            <g transform="matrix(-0.707107,0.707107,0.707107,0.707107,2092.62,-1006.14)">
                <path d="M1102.93,1074.54C1109.92,1076.63 1117.17,1075.47 1124.34,1075.72C1128.41,1075.86 1132.55,1076.15 1136.01,1078.56C1138.42,1080.24 1140.35,1082.71 1141.83,1085.23C1142.4,1086.19 1142.95,1087.16 1143.51,1088.13C1143.63,1088.34 1143.75,1088.55 1143.85,1088.76C1143.91,1088.88 1144.05,1089.23 1144.02,1089.11C1143.93,1088.67 1143.69,1088.22 1143.53,1087.82C1143.48,1087.68 1143.42,1087.55 1143.37,1087.42C1143.34,1087.36 1143.27,1087.15 1143.27,1087.22C1143.25,1087.68 1143.46,1088.22 1143.54,1088.67C1143.89,1090.72 1144.6,1092.3 1145.74,1094.07C1147.94,1097.48 1150.38,1100.47 1153.4,1103.19C1154.57,1104.24 1155.65,1105.38 1156.89,1106.34C1159.58,1108.42 1162.52,1110.12 1165.39,1111.93C1168.99,1114.19 1172.94,1116.35 1177.13,1117.3C1181.25,1118.25 1185.55,1118.05 1189.71,1117.66" style="fill:none;stroke:rgb(0,179,254);stroke-width:10.42px;"/>
            </g>
            <g transform="matrix(-0.707107,0.707107,0.707107,0.707107,2092.62,-1006.14)">
                <path d="M1188.54,1115.68C1190.37,1115.31 1192.15,1114.56 1194,1114.36C1196.69,1114.06 1199.41,1114.38 1202.1,1114.08" style="fill:none;stroke:rgb(0,179,254);stroke-width:2.29px;"/>
            </g>
            <g transform="matrix(-0.707107,0.707107,0.707107,0.707107,2092.62,-1006.14)">
                <path d="M1210.7,1110.71C1210.13,1110.84 1209.54,1110.92 1208.98,1111.1C1207.87,1111.45 1206.81,1111.95 1205.69,1112.3C1205.27,1112.43 1204.84,1112.52 1204.41,1112.63C1203.67,1112.85 1202.92,1113.09 1202.17,1113.26C1201.53,1113.41 1200.87,1113.49 1200.22,1113.58C1198.56,1113.81 1196.85,1113.86 1195.17,1113.81C1193.28,1113.76 1191.39,1113.58 1189.5,1113.66" style="fill:none;stroke:rgb(0,179,254);stroke-width:2.29px;"/>
            </g>
            <g transform="matrix(-0.707107,0.707107,0.707107,0.707107,2092.62,-1006.14)">
                <path d="M1140.25,1074.96C1142.84,1081.1 1144.65,1087.84 1147.72,1093.76C1150.37,1098.9 1154.22,1103.48 1158.55,1107.28" style="fill:none;stroke:rgb(0,179,254);stroke-width:10.42px;"/>
            </g>
            <g transform="matrix(-0.707107,0.707107,0.707107,0.707107,2092.62,-1006.14)">
                <path d="M1147.91,1094.38C1146.68,1090.11 1145.8,1085.66 1144.96,1081.3C1144.25,1077.65 1143.54,1073.49 1144.39,1069.8C1144.88,1067.68 1146.12,1065.87 1147.09,1063.95C1148.4,1061.34 1149.57,1058.68 1150.53,1055.91" style="fill:none;stroke:rgb(0,179,254);stroke-width:10.42px;"/>
            </g>
            <g transform="matrix(-0.707107,0.707107,0.707107,0.707107,2092.62,-1006.14)">
                <path d="M1145.79,1063.45C1149.31,1056.59 1153.8,1049.84 1154.94,1042.08C1155.74,1036.71 1154.52,1031.82 1152.86,1026.76C1149.85,1017.57 1145.25,1009.3 1138.91,1001.98" style="fill:none;stroke:rgb(0,179,254);stroke-width:10.42px;"/>
            </g>
            <g transform="matrix(-0.707107,0.707107,0.707107,0.707107,2092.62,-1006.14)">
                <path d="M1143.11,1007.12C1139.88,1003.64 1136.13,1000.47 1133.33,996.613C1130.11,992.155 1127.88,986.928 1125.5,981.995C1123.98,978.836 1122.53,975.651 1121.38,972.335C1120.92,971.028 1120.52,969.705 1120.14,968.373C1120.02,967.932 1119.93,967.613 1119.81,967.184C1119.77,967.018 1119.74,966.524 1119.68,966.686C1118.87,969.048 1118.65,971.59 1118.6,974.072C1118.59,974.918 1118.61,975.765 1118.64,976.61C1118.65,976.766 1118.82,977.045 1118.67,977.077C1116.47,977.535 1114.18,977.665 1111.97,977.202C1110.17,976.824 1108.51,975.97 1106.69,975.618C1103.88,975.074 1101.43,975.982 1099.57,978.072C1096.23,981.828 1095.51,987.728 1094.87,992.489C1094.65,994.164 1094.37,995.796 1093.98,997.439C1093.85,997.966 1093.72,998.492 1093.58,999.015C1093.52,999.264 1093.11,999.858 1093.34,999.752C1099.41,997.007 1103.46,992.495 1105.59,986.146C1106.29,984.033 1106.86,981.871 1107.42,979.716C1107.65,978.84 1107.78,978.335 1107.97,977.47C1108.04,977.196 1108.09,976.922 1108.15,976.648C1108.2,976.398 1108.25,975.647 1108.3,975.897C1109.11,979.515 1109.83,983.15 1110.57,986.785C1110.9,988.464 1111.24,990.144 1111.59,991.82C1111.75,992.583 1111.84,992.97 1112,993.688C1112.04,993.894 1112.07,994.506 1112.14,994.306C1112.6,992.971 1112.63,992.882 1113,991.561C1113.15,991.022 1113.27,990.508 1113.4,989.968C1113.44,989.803 1113.35,989.449 1113.52,989.472C1114.49,989.605 1115.48,990.011 1116.38,990.393C1117.35,990.804 1117.89,991.6 1118.12,990.303C1118.6,987.546 1118.52,984.808 1118.25,982.036C1118.16,981.213 1118.05,980.434 1117.94,979.618C1117.9,979.363 1117.67,978.647 1117.83,978.854C1118.77,980.113 1119.36,981.832 1120.03,983.261C1121.23,985.854 1122.48,988.398 1123.74,990.962C1124.43,992.366 1125.09,993.788 1125.83,995.168C1126.11,995.688 1126.4,996.203 1126.73,996.692C1126.88,996.904 1127.45,997.302 1127.19,997.306C1125.54,997.332 1123.76,996.933 1122.12,996.694C1118.59,996.18 1114.21,995.691 1111.62,992.981C1110.4,991.7 1109.53,990.166 1108.83,988.547C1107.31,985.044 1106.35,981.205 1105.41,977.508C1105.21,976.716 1105.02,975.921 1104.83,975.127C1104.8,975.004 1104.69,974.431 1104.48,974.417C1104.03,974.388 1103.52,974.699 1103.17,974.914C1100.51,976.55 1102.46,979.672 1104.4,981.374C1107.87,984.421 1113.28,984.866 1117.58,983.486C1120.64,982.503 1121.75,979.397 1122.28,976.461C1122.46,975.475 1122.56,974.483 1122.64,973.483C1122.66,973.16 1122.68,972.836 1122.71,972.512C1122.71,972.49 1122.76,972.073 1122.76,972.077C1123.6,972.508 1124.23,973.513 1124.8,974.27C1126.07,975.971 1127.25,977.721 1128.6,979.361C1134.81,986.883 1138.33,995.685 1142.4,1004.49C1143.7,1007.29 1145.4,1009.89 1146.77,1012.66C1149.16,1017.51 1151.99,1022.6 1153.09,1027.95" style="fill:none;stroke:rgb(0,179,254);stroke-width:10.42px;"/>
            </g>
            <g transform="matrix(-0.707107,0.707107,0.707107,0.707107,2092.62,-1006.14)">
                <path d="M1139.84,950.237C1139.9,956.634 1140.06,963.035 1140.05,969.433C1140.03,973.47 1139.47,977.749 1140.48,981.711C1143.61,994.028 1152.17,1003.11 1158.85,1013.51" style="fill:none;stroke:black;stroke-width:10.42px;"/>
            </g>
            <g transform="matrix(-0.707107,0.707107,0.707107,0.707107,2092.62,-1006.14)">
                <path d="M1087.34,957.177C1087.24,959.771 1087.56,962.332 1087.58,964.925C1087.63,973.829 1087.14,983.987 1082.29,991.688C1079.74,995.744 1075.19,997.817 1072.04,1001.34" style="fill:none;stroke:black;stroke-width:10.42px;"/>
            </g>
            <g transform="matrix(-0.707107,0.707107,0.707107,0.707107,2092.62,-1006.14)">
                <path d="M1149.79,974.958C1149.71,978.4 1148.63,983.634 1149.95,987.061C1152.44,993.539 1159.12,997.728 1163.49,1002.79C1168.89,1009.06 1171.92,1017.01 1173.01,1025.15C1174.39,1035.38 1173.31,1046.04 1170.12,1055.83C1167.25,1064.63 1161.97,1072.57 1164.43,1082.08" style="fill:none;stroke:black;stroke-width:10.42px;"/>
            </g>
        </g>
    </g>
</svg>
