<?xml version="1.0" encoding="UTF-8" standalone="no"?>
<!DOCTYPE svg PUBLIC "-//W3C//DTD SVG 1.1//EN" "http://www.w3.org/Graphics/SVG/1.1/DTD/svg11.dtd">
<svg width="100%" height="100%" viewBox="0 0 396 355" version="1.1" xmlns="http://www.w3.org/2000/svg" xmlns:xlink="http://www.w3.org/1999/xlink" xml:space="preserve" xmlns:serif="http://www.serif.com/" style="fill-rule:evenodd;clip-rule:evenodd;stroke-linecap:round;stroke-linejoin:round;stroke-miterlimit:1.5;">
    <g transform="matrix(1,0,0,1,-3712.31,-1432.63)">
        <g transform="matrix(1,0,0,1,3367.72,847.724)">
            <g>
                <g transform="matrix(1,0,0,1,-1876.65,-351.104)">
                    <path d="M2296.59,1078.75C2296.22,1078.1 2290.48,1082.59 2290.48,1084.49C2290.48,1085.24 2290.57,1082.98 2290.78,1082.27C2291.42,1080.2 2292.4,1078.25 2293.18,1076.24C2293.38,1075.74 2293.54,1075.22 2293.71,1074.71C2293.88,1074.2 2294.43,1072.66 2294.26,1073.17C2291.6,1080.73 2287.25,1087.89 2283.16,1094.72C2280.32,1099.46 2276.19,1104.03 2277.14,1109.83C2277.53,1112.2 2279.57,1114.55 2280.73,1116.53C2284.82,1123.52 2290.25,1129.21 2294.57,1136.09C2296.24,1138.74 2297.84,1141.55 2299.13,1144.41C2300.76,1148.03 2300.99,1152.61 2304.15,1155.64C2305.43,1156.88 2308.16,1157.32 2309.69,1158.28C2314.21,1161.13 2316.64,1163.49 2318.66,1168.51C2321.22,1174.86 2324.49,1180.97 2322.33,1188.2C2321.64,1190.54 2319.02,1192.39 2317.5,1194.18C2314.7,1197.48 2313.22,1204.29 2314.08,1208.54C2314.39,1210.1 2315.86,1211.43 2316.59,1212.8C2318.72,1216.8 2320.85,1220.22 2323.32,1224.14C2325.44,1227.5 2327.15,1231.45 2329.69,1234.52C2330.83,1235.89 2334.4,1234.81 2335.95,1234.73C2342.36,1234.4 2348.95,1234.34 2355.16,1233.78C2368.16,1232.62 2381.76,1234.09 2394.84,1233.97C2400.35,1233.91 2405.64,1232.69 2411.07,1232.4C2417.94,1232.05 2424.93,1232.4 2431.8,1232.4C2451.45,1232.4 2471.11,1231.3 2490.7,1230.41C2495.61,1230.18 2500.87,1231.06 2505.75,1230.4C2510.11,1229.81 2517.78,1222.41 2519.53,1218.02C2520.37,1215.9 2522.46,1209.9 2521.59,1207.43C2520.15,1203.35 2515.97,1199.94 2513.87,1196.04C2511.7,1191.99 2511.92,1186.07 2511.89,1181.68C2511.87,1179.53 2511.55,1177.03 2512.27,1174.96C2513.52,1171.37 2518.84,1167.88 2521.06,1164.91C2524.34,1160.5 2526.7,1155.07 2530.87,1151.38C2538.1,1144.98 2545.02,1139.87 2550.51,1131.72C2551.41,1130.37 2552.9,1129.17 2553.53,1127.66C2557,1119.22 2555.22,1107.19 2552.82,1098.95C2552.06,1096.34 2550.8,1093.77 2550.2,1091.13C2549.32,1087.25 2548.72,1080.9 2543.78,1079.7C2531.37,1076.68 2518.43,1079.44 2505.92,1078.85C2500.96,1078.62 2496,1077.71 2491.21,1076.4C2485.53,1074.86 2481.36,1072.82 2475.72,1074.15C2475.21,1074.28 2476.55,1074.8 2476.9,1075.2C2477.24,1075.58 2477.54,1076.01 2477.84,1076.43C2478.37,1077.19 2480.79,1080.85 2481.14,1081.46C2482.22,1083.35 2483.43,1086.11 2484.32,1088.07C2486.19,1092.21 2490.64,1099.34 2488.07,1104.26C2486.33,1107.59 2481.4,1107.33 2478.69,1109.44C2474.01,1113.08 2470.36,1118.15 2465.45,1121.82C2464.07,1122.86 2461.79,1122.87 2460.26,1123.77C2456.17,1126.18 2455.3,1130.87 2452.47,1134.29C2448.6,1138.99 2443.16,1144.18 2437.59,1146.66C2432.74,1148.83 2425.9,1149.47 2420.59,1150.18C2417.82,1150.55 2414.93,1148.43 2412.51,1147.39C2409.16,1145.94 2404.42,1145.33 2401.45,1143.07C2397.37,1139.95 2395.56,1134.37 2391.97,1130.86C2391.19,1130.09 2388.88,1129.78 2387.82,1129.43C2383.22,1127.91 2377.33,1127.82 2373.32,1124.92C2368.95,1121.76 2363.74,1117.38 2363.2,1111.65C2362.82,1107.49 2363.44,1102.93 2363.59,1098.7C2363.72,1095.34 2363.12,1092.38 2364.85,1089.38C2366.73,1086.15 2369.29,1082.36 2371.93,1079.67C2372.33,1079.27 2374.51,1077 2373.94,1076.26C2373.6,1075.82 2369.84,1076.21 2369.22,1076.21C2364.7,1076.21 2360.1,1076.41 2355.59,1076.21C2346.77,1075.82 2337.93,1075.28 2329.12,1074.79C2320.39,1074.29 2312.17,1073.67 2304.95,1079.63C2301.3,1082.65 2301.93,1090.46 2300.27,1094.67C2298.12,1100.12 2294.23,1103.26 2291.06,1107.76C2290.64,1108.37 2292.29,1106.92 2292.89,1106.48C2294.59,1105.23 2296.34,1104.06 2298.05,1102.83C2302.74,1099.45 2302.55,1099.44 2307.21,1096.15C2312.73,1092.26 2318.7,1087.49 2325.19,1085.29C2331.05,1083.3 2339.46,1084.59 2344.92,1086.87C2346.2,1087.4 2351.67,1088.59 2352.2,1090.12C2352.66,1091.44 2346.37,1094.6 2345.98,1094.84C2341,1098.01 2335.75,1100.47 2330.28,1102.67C2323.21,1105.51 2317.28,1109.85 2311.54,1114.78C2308.3,1117.57 2305.19,1121.39 2301.44,1123.29C2300.93,1123.55 2302.4,1122.66 2302.82,1122.28C2303.7,1121.48 2303.58,1121.52 2304.56,1120.77C2306.5,1119.29 2308.76,1118.05 2311.05,1117.21C2319.22,1114.22 2328.09,1113.91 2336.18,1110.53C2339.01,1109.34 2341.51,1107.73 2344.26,1106.37C2344.8,1106.1 2349.13,1105.28 2349.08,1105.48C2348.94,1106.14 2346.51,1108.42 2346.44,1108.5C2344.32,1110.79 2342.17,1112.97 2339.83,1115.03C2333.64,1120.5 2327.28,1125.45 2321.32,1131.22C2317.9,1134.54 2314.24,1139.22 2309.14,1139.22C2308.75,1139.22 2309.89,1139.01 2310.26,1138.87C2311.82,1138.3 2313.39,1137.74 2314.96,1137.17C2318.37,1135.93 2321.78,1134.71 2325.19,1133.48C2330.68,1131.5 2336.03,1129.38 2341.21,1126.7C2343,1125.78 2346.09,1121.26 2348.31,1122.08C2350,1122.7 2351.7,1125.43 2353.01,1126.62C2355.7,1129.09 2358.64,1131.04 2361.84,1132.83C2367.11,1135.79 2372.74,1137.65 2378.25,1140.06C2381.55,1141.5 2384.24,1144.15 2387.64,1145.31C2390.2,1146.18 2393.1,1145.69 2395.54,1146.5C2407.29,1150.42 2418.03,1155.17 2430.35,1154.31C2439.83,1153.64 2444.81,1152.22 2452.03,1146.38C2454.61,1144.3 2455.2,1143.83 2457.73,1141.88C2468.33,1133.75 2477.44,1123.88 2485.68,1113.36C2490.43,1107.29 2490.07,1097.89 2498.01,1094.35C2506.59,1090.53 2517.22,1093.97 2525.88,1095.55C2529.51,1096.21 2533.77,1095.75 2537.17,1097.46C2538.21,1097.98 2534.91,1102.43 2534.65,1102.81C2531.73,1107.13 2528.39,1109.48 2523.2,1110.08C2517.89,1110.69 2512.87,1109.71 2507.63,1109.71C2507.33,1109.71 2508.23,1109.68 2508.53,1109.71C2509.26,1109.78 2509.99,1109.85 2510.71,1110.02C2512.06,1110.35 2518.41,1112.5 2519.06,1112.7C2524.69,1114.4 2530.4,1115.9 2536.18,1116.97C2537.54,1117.22 2540.75,1117.68 2542.19,1117.9C2543.57,1118.1 2543.59,1118.15 2544.69,1118.2C2544.71,1118.2 2545.65,1118.12 2545.59,1118.32C2544.99,1120.39 2542.35,1122.35 2540.82,1123.61C2536.57,1127.1 2531.39,1129.17 2527.17,1132.63C2517.34,1140.7 2509.65,1152.6 2505.85,1164.65C2504.59,1168.63 2504.78,1172.81 2503.76,1176.82C2503.22,1178.98 2501.52,1180.99 2501.73,1183.27C2502,1186.11 2504.74,1188.25 2505.55,1191C2506.53,1194.36 2505.64,1198.81 2505.64,1202.33C2505.64,1205.51 2506.44,1208.66 2507.42,1211.68C2507.65,1212.37 2508.65,1213.35 2508.06,1213.77C2507.5,1214.17 2506.82,1214.37 2506.18,1214.64C2497.21,1218.46 2488.26,1218.15 2478.79,1218.15C2475.13,1218.15 2471.27,1218.6 2467.63,1218.33C2464.42,1218.09 2462.35,1217.11 2458.91,1217.19C2450.64,1217.38 2442.44,1219.09 2434.25,1220.07C2430.71,1220.49 2427.12,1220.43 2423.6,1221.04C2420.5,1221.58 2417.06,1222.92 2413.93,1223.04C2404.28,1223.43 2394.53,1223.04 2384.88,1223.04C2378.71,1223.04 2372.49,1222.83 2366.33,1223.04C2357.16,1223.37 2348.96,1223.91 2341.92,1216.93C2339.32,1214.34 2338.25,1211.08 2336.91,1207.77C2336.38,1206.47 2335.33,1206.65 2334.89,1205.77C2332.93,1201.88 2334.46,1198.02 2335.85,1194.25C2336.92,1191.34 2341.16,1186.08 2340.26,1182.83C2339.38,1179.71 2336.18,1176.43 2334.38,1173.8C2330.38,1167.96 2327.37,1161.56 2323.22,1155.72C2321.75,1153.65 2320.23,1151.62 2318.63,1149.64C2318.26,1149.18 2316.71,1147.92 2317.06,1147.06C2317.71,1145.48 2325.4,1144.71 2326.63,1144.4C2333.92,1142.58 2341.24,1140.91 2348.53,1139.06C2349.37,1138.85 2350.21,1138.63 2351.04,1138.4C2351.9,1138.17 2354.82,1136.57 2356.05,1136.88C2356.21,1136.92 2356.26,1139.89 2356.31,1140.12C2356.74,1142.08 2358.13,1143.4 2359.87,1144.32C2364.75,1146.88 2371.49,1146.18 2375.89,1149.66C2377.12,1150.63 2378.25,1155.56 2379.45,1155.74C2384.06,1156.46 2389.03,1156.16 2393.75,1156.9C2401.38,1158.09 2409.2,1161.01 2416.92,1161.42C2422.73,1161.73 2428.7,1161.58 2434.51,1161.43C2444.97,1161.18 2456.86,1160.23 2465.7,1153.98C2469.31,1151.44 2471.42,1146.11 2473.54,1142.51C2478.27,1134.47 2483.23,1127.82 2490.12,1121.59C2491.67,1120.19 2496.29,1116 2498.57,1115.76C2503,1115.28 2508.04,1118.76 2511.17,1121.55C2513.11,1123.28 2515.48,1126.67 2516.15,1129.25C2516.44,1130.41 2513.78,1129.54 2512.59,1129.62C2508.75,1129.89 2502.61,1128.99 2499.06,1130.36C2498.86,1130.43 2499.01,1132.05 2499.01,1132.12C2499.01,1134.42 2498.64,1137.11 2499.68,1139.25C2500.68,1141.29 2502.51,1143.13 2504.17,1144.63C2504.2,1144.66 2506.25,1146.04 2506.25,1146.32C2506.25,1146.91 2505.07,1146.33 2504.5,1146.21C2500.61,1145.41 2496.8,1144.32 2492.89,1143.62C2491.04,1143.28 2489.17,1143.05 2487.31,1142.74C2486.58,1142.62 2484.39,1142.55 2485.11,1142.37C2486.22,1142.1 2491.79,1146.51 2490.13,1148.36C2488.82,1149.82 2486.25,1150.99 2484.42,1151.59C2483.61,1151.85 2481.1,1152.02 2481.94,1152.17C2486.42,1152.98 2490.71,1154.18 2495.1,1155.35C2495.94,1155.57 2498.2,1155.85 2499.07,1156.46C2499.45,1156.73 2498.13,1156.54 2497.66,1156.54C2496.56,1156.55 2495.47,1156.58 2494.38,1156.55C2489.46,1156.41 2484.82,1155.77 2479.98,1154.99C2478.83,1154.8 2477.67,1154.66 2476.52,1154.48C2475.75,1154.35 2473.54,1153.65 2474.24,1154C2479.54,1156.62 2483.68,1161.58 2488,1165.54C2488.95,1166.4 2491.35,1168.12 2490.2,1168.68C2486.47,1170.52 2480.3,1169.57 2476.36,1169.57C2474.01,1169.57 2472.09,1169.66 2469.8,1169.4C2469.01,1169.3 2466.8,1168.8 2467.55,1168.52C2473.24,1166.41 2480.94,1172.25 2485.19,1175.07C2486.18,1175.73 2491.58,1178.77 2491.47,1180.48C2491.45,1180.87 2490.66,1180.51 2490.29,1180.37C2489.47,1180.06 2488.66,1179.7 2487.88,1179.29C2485.01,1177.8 2482.25,1176.02 2479.44,1174.41C2478.76,1174.02 2478.09,1173.63 2477.43,1173.22C2476.86,1172.87 2475.42,1171.54 2475.78,1172.1C2479.95,1178.73 2484.51,1185.42 2489.51,1191.45C2491.16,1193.44 2494.54,1196.24 2493.51,1199.33C2493.07,1200.68 2488.73,1201.43 2487.79,1201.7C2482.24,1203.32 2476.42,1203.63 2470.9,1205.44C2463.99,1207.71 2457.1,1209.07 2449.78,1208.5C2447.22,1208.31 2445.56,1207.35 2442.71,1207.46C2428.49,1207.97 2414.16,1208.86 2399.93,1208.17C2392.14,1207.79 2384.32,1206.89 2376.5,1207.55C2373.81,1207.78 2371.14,1208.17 2368.45,1208.4C2366.42,1208.57 2364.38,1208.69 2362.35,1208.82C2360.84,1208.92 2359.33,1209.01 2357.82,1209.09C2356.63,1209.15 2355.44,1209.21 2354.26,1209.25C2353.22,1209.29 2352.18,1209.31 2351.14,1209.32C2349.88,1209.34 2342.87,1209.92 2342.18,1208.38C2340.69,1205.01 2344.26,1201.58 2346.38,1199.71C2351.41,1195.27 2354.16,1195.09 2354.16,1188.45C2354.16,1181.19 2348.23,1179.09 2344,1173.74C2341.05,1170.01 2341.2,1166.39 2340.28,1161.97C2339.66,1158.98 2338.43,1154.78 2339.45,1151.76C2340.15,1149.67 2345.55,1154.32 2346,1154.6C2349.96,1157.03 2354.63,1157.13 2358.51,1159.3C2361.3,1160.86 2363.03,1163.76 2366.14,1164.9C2370.06,1166.33 2375.38,1165.37 2379.45,1165.56C2383.67,1165.75 2387.81,1166.64 2391.97,1166.9C2398.45,1167.3 2405,1166.75 2411.49,1167.1C2416.29,1167.35 2421.11,1167.35 2425.9,1167.66C2429.72,1167.91 2433.55,1168.3 2437.33,1168.86C2446.59,1170.23 2456.36,1171.36 2465.44,1173.66C2468.77,1174.51 2472.46,1176.5 2472.94,1180.29C2473.17,1182.11 2473.04,1184.08 2473.02,1185.9C2473.01,1187 2473.09,1193.53 2471.79,1194.21C2470.39,1194.95 2466.3,1194.21 2464.84,1194.21C2457.87,1194.21 2449.15,1192.87 2442.42,1195.26C2437.44,1197.04 2432.95,1200.4 2427.59,1201.06C2419.76,1202.02 2410.32,1201.95 2402.55,1200.47C2397.13,1199.44 2391.87,1197.09 2386.43,1196.32C2374.16,1194.58 2356.46,1199.82 2349.61,1186.04C2348.16,1183.13 2347.49,1179.86 2346.82,1176.7C2346.05,1173.11 2345.66,1169.07 2346.03,1165.39C2346.13,1164.43 2347.62,1164.68 2348.24,1164.71C2351.35,1164.86 2354.08,1166.84 2356.63,1168.42C2365.12,1173.65 2372.62,1179.93 2380.57,1185.88C2388.09,1191.52 2397.08,1188.51 2405.28,1185.96C2407.95,1185.13 2411.64,1182.66 2414.6,1183.6C2425.88,1187.18 2436.19,1192.2 2448.51,1189.91C2451.1,1189.43 2453.66,1188.24 2456.12,1187.32C2456.23,1187.27 2458.2,1186.71 2458.26,1186.34C2458.4,1185.32 2456.26,1185.85 2455.27,1185.58C2451.91,1184.66 2448.6,1183.69 2445.16,1183.1C2431.04,1180.64 2416.62,1182.68 2402.45,1180.05C2397.66,1179.16 2392.78,1178.71 2387.9,1178.7C2387.49,1178.7 2380.51,1178.18 2382.84,1178.15" style="fill:none;stroke:rgb(255,114,59);stroke-width:20.83px;"/>
                </g>
                <g transform="matrix(-1,0,0,1,1086.42,0)">
                    <path d="M392.89,712.975C412.874,712.246 432.626,711.412 452.576,709.655C465.516,708.515 478.556,710.33 491.559,709.981C507.603,709.552 523.938,707.67 539.951,708.685C567.747,710.447 576.099,706.254 603.927,706.454C610.787,706.503 637.102,711.261 643.964,711.283C654.475,711.316 664.976,711.247 675.48,711.654C678.28,711.763 684.541,712.019 687.364,712.51C694.155,713.691 698.057,713.597 699.893,720.053C701.068,724.187 699.988,739.006 699.893,743.285C699.763,749.068 697.726,754.251 695.822,759.692C695.677,760.106 693.334,771.816 691.47,776.993C688.952,783.989 687.807,792.324 686.082,799.545C682.916,812.794 676.755,824.892 674.267,838.283C672.255,849.107 669.492,858.84 663.397,868.288C658.718,875.543 654.572,886.721 647.969,892.205C638.855,899.775 631.624,901.498 620.338,905.735C601.824,912.685 581.851,912.504 562.381,911.886C545.998,911.366 529.616,910.922 513.241,910.187C490.126,909.15 464.698,910.322 445.183,895.533C420.978,877.191 414.805,844.267 406.257,817.038C399.157,794.418 392.304,771.958 387.879,748.582C386.125,739.321 385.943,730.857 388.009,721.704C388.566,719.236 388.801,715.89 390.29,713.691" style="fill:none;stroke:black;stroke-width:20.83px;"/>
                </g>
                <g transform="matrix(-1.01794,-0.0352043,0.0418023,-1.20872,2959.3,2209.18)">
                    <path d="M2435.38,1109.55C2430.36,1106.36 2424.41,1103.14 2418.27,1103.53C2415.32,1103.72 2412.36,1104.59 2409.67,1105.81C2407.42,1106.84 2405.41,1108.23 2403.64,1109.97C2392.84,1120.59 2401.65,1133.37 2412.09,1140.16C2415.9,1142.63 2422.14,1140.5 2425.99,1139.16C2433.6,1136.5 2442.36,1127.29 2440.91,1118.58C2440.18,1114.24 2436.29,1110.01 2432.78,1107.51" style="fill:none;stroke:black;stroke-width:18.63px;"/>
                </g>
                <path d="M521.484,714.32C522.045,696.266 522.793,677.727 521.778,659.675C521.029,646.351 517.938,632.486 519.817,619.154C521.11,609.984 525.713,601.704 534.368,597.582C536.811,596.419 539.909,594.896 542.748,595.433C545.939,596.036 548.862,598.168 551.528,599.937C570.828,612.745 567.13,637.371 565.358,657.325C564.929,662.154 564.627,666.993 564.385,671.834C564.241,674.73 564.118,677.695 564.007,680.599C563.707,688.481 563.312,696.421 563.384,704.314C563.396,705.644 562.756,711.209 563.809,712.43C573.195,723.323 592.821,726.88 593.487,743.922C593.571,746.092 593.324,748.266 592.731,750.356C588.956,763.672 572.546,766.746 561.305,761.176C554.627,757.868 549.675,751.738 541.733,751.676C530.83,751.591 525.654,765.628 514.698,765.308C511.895,765.227 508.815,763.979 506.421,762.602C495.123,756.105 493.364,745.701 499.108,734.215C503.423,725.587 514.162,720.129 521.484,714.32Z" style="fill:rgb(255,114,59);stroke:black;stroke-width:20.83px;"/>
                <path d="M660.192,810.495C671.12,798.266 682.744,785.674 691.589,771.79C691.725,771.576 690.829,768.959 690.761,768.621C690.045,765.061 689.481,761.472 689.008,757.873C686.911,741.886 683.713,726.493 676.27,712.074C667.735,695.54 657.29,680.227 649.223,663.426C644.294,653.161 639.677,643.451 647.699,633.601C649.116,631.861 650.776,630.421 652.701,629.263C668.694,619.645 681.92,640.727 688.048,652.038C703.276,680.147 717.722,710.563 724.601,741.794C727.233,753.744 730.646,767.803 728.871,780.245C726.686,795.563 715.331,804.883 704.693,814.96C701.631,817.861 698.505,820.696 695.521,823.678C689.455,829.74 683.601,835.951 677.241,841.715C673.342,845.248 669.036,848.909 663.743,849.957C653.39,852.007 648.2,843.14 648.784,834.158C649.605,821.513 656.747,811.738 666.53,804.334" style="fill:rgb(255,114,59);stroke:black;stroke-width:20.83px;"/>
                <g transform="matrix(-1,0,0,1,1084.37,-0.162306)">
                    <path d="M660.192,810.495C671.12,798.266 682.744,785.674 691.589,771.79C691.725,771.576 690.829,768.959 690.761,768.621C690.045,765.061 689.481,761.472 689.008,757.873C686.911,741.886 683.713,726.493 676.27,712.074C667.735,695.54 657.29,680.227 649.223,663.426C644.294,653.161 639.677,643.451 647.699,633.601C649.116,631.861 650.776,630.421 652.701,629.263C668.694,619.645 681.92,640.727 688.048,652.038C703.276,680.147 717.722,710.563 724.601,741.794C727.233,753.744 730.646,767.803 728.871,780.245C726.686,795.563 715.331,804.883 704.693,814.96C701.631,817.861 698.505,820.696 695.521,823.678C689.455,829.74 683.601,835.951 677.241,841.715C673.342,845.248 669.036,848.909 663.743,849.957C653.39,852.007 648.2,843.14 648.784,834.158C649.605,821.513 656.747,811.738 666.53,804.334" style="fill:rgb(255,114,59);stroke:black;stroke-width:20.83px;"/>
                </g>
                <path d="M475.608,897.758C499.831,897.389 510.657,897.745 534.882,897.758C550.579,897.766 566.327,895.653 582.012,896.191C592.975,896.567 603.942,896.521 614.905,896.818C620.296,896.964 626.792,896.56 631.722,899.198C634.4,900.631 637.388,902.775 638.704,905.644C643.06,915.142 634.495,922.465 625.256,924.577C610.709,927.902 596.626,928.07 582.012,927.859C572.311,927.72 561.945,928.992 552.256,928.575C542.717,928.166 533.162,928.239 523.626,927.859C519.888,927.71 516.287,926.756 512.529,926.802C505.999,926.883 499.51,927.852 492.972,927.883C486.39,927.915 479.926,927.006 473.373,926.805C466.198,926.585 459.822,927.985 453.48,923.482C450.618,921.449 447.053,915.06 447.545,912.151C448.216,908.177 450.129,903.59 453.48,901.104C458.264,897.553 470.075,898.149 475.608,897.758Z" style="fill:rgb(255,114,59);stroke:black;stroke-width:20.83px;"/>
            </g>
        </g>
    </g>
</svg>
