<?xml version="1.0" encoding="UTF-8" standalone="no"?>
<!DOCTYPE svg PUBLIC "-//W3C//DTD SVG 1.1//EN" "http://www.w3.org/Graphics/SVG/1.1/DTD/svg11.dtd">
<svg width="100%" height="100%" viewBox="0 0 340 347" version="1.1" xmlns="http://www.w3.org/2000/svg" xmlns:xlink="http://www.w3.org/1999/xlink" xml:space="preserve" xmlns:serif="http://www.serif.com/" style="fill-rule:evenodd;clip-rule:evenodd;stroke-linecap:round;stroke-linejoin:round;stroke-miterlimit:1.5;">
    <g transform="matrix(1,0,0,1,-3310.77,-1417.68)">
        <g transform="matrix(1,0,0,1,2437.11,585.895)">
            <g>
                <g transform="matrix(1,0,0,1,-1852.08,656.476)">
                    <path d="M2798.25,435.038C2799.62,429.499 2804.02,424.157 2806.98,419.355C2808.49,416.892 2808.43,417.006 2809.78,414.359C2810.01,413.899 2810.68,412.591 2810.69,413.107C2810.71,415.268 2808,418.285 2807.04,420.039C2804.4,424.861 2801.95,429.203 2797.76,432.849C2797.28,433.261 2795.44,435.349 2794.64,435.424C2794.05,435.48 2794.43,434.244 2794.44,433.648C2794.49,429.644 2795.65,426.883 2797.07,423.228C2797.48,422.173 2799.26,419.932 2798.14,420.005C2796.92,420.083 2792.84,424.118 2793.36,425.597C2793.73,426.666 2797.4,426.573 2798.1,426.595C2803.02,426.749 2806.77,426.705 2811.01,424.035C2812.58,423.049 2814.27,421.763 2815.75,420.616C2816.63,419.929 2818.88,417.475 2818.3,418.436C2816.6,421.276 2814.08,423.95 2812.07,426.577C2810.99,427.989 2809.81,429.331 2808.72,430.736C2808.44,431.093 2807.76,432.274 2808,431.886C2810.58,427.606 2815.99,418.527 2821.15,415.874C2823.57,414.63 2827.37,415.252 2829.96,414.835C2834.23,414.148 2838.34,412.755 2842.51,411.674C2848.21,410.195 2853.74,409.787 2859.57,409.787C2860.45,409.787 2863.23,409.268 2864.05,409.79C2868.22,412.422 2866.91,420.796 2867.26,424.985C2867.53,428.304 2870.19,429.072 2871.21,431.684C2873.01,436.269 2872.15,443.058 2872.66,447.916C2873.12,452.383 2875.37,456.561 2876.02,460.76C2876.63,464.661 2878.37,476.385 2883.36,477.301C2887.3,478.024 2887.96,474.629 2888.99,471.28C2890.62,465.95 2892.44,461.424 2893.29,455.778C2893.69,453.104 2894.07,450.426 2894.46,447.751C2895.03,443.941 2895.04,444.162 2895.44,440.127C2895.52,439.304 2895.56,438.476 2895.66,437.653C2895.74,436.948 2895.99,434.842 2895.99,435.551C2895.99,443.051 2897.15,452.408 2894.74,459.701C2893.45,463.631 2889.69,466.357 2888.84,470.606C2888.26,473.471 2888.95,474.283 2890.49,476.613C2890.61,476.786 2891.72,479.1 2892.09,479.035C2892.48,478.967 2892.87,475.495 2892.94,475.19C2893.73,471.45 2893.9,467.799 2894.57,464.053C2895.68,457.774 2900.51,453.14 2901.91,446.952C2903.72,438.982 2898.55,427.606 2907.12,422.296C2909.86,420.602 2913.73,420.539 2916.84,420.345C2925.17,419.823 2934.87,419.245 2942.27,423.568C2945.92,425.7 2948.32,430.723 2952.26,432.06C2961.5,435.189 2973.05,430.734 2981.97,435.049C2984.65,436.344 2980.67,441.519 2979.43,442.678C2971.24,450.327 2970.7,432.805 2970.7,428.037C2970.69,426.219 2970.16,423.342 2971.01,421.683C2972.15,419.477 2977.14,418.652 2974.46,415.797C2973.66,414.948 2967.79,411.203 2968.92,414.729C2969.64,416.997 2981.11,424.351 2973.57,425.525C2973,425.613 2970.47,425.719 2969.71,425.691C2967.99,425.628 2966.13,425.402 2964.63,424.493C2956.19,419.385 2951,403.106 2952.54,393.752C2953.04,390.721 2955.76,387.947 2957.16,385.299C2958.33,383.102 2959.26,380.885 2959.93,378.491C2960.23,377.397 2959.66,375.196 2960.79,375.196C2961.91,375.196 2960.85,377.443 2960.89,378.566C2960.94,379.74 2960.98,380.915 2961.08,382.087C2961.4,385.964 2961.56,390.153 2962.36,393.977C2962.55,394.9 2962.43,392.087 2962.35,391.147C2962.27,390.206 2962.13,389.271 2962.02,388.333C2961.63,385.081 2961.59,385.239 2961.48,382.108C2961.4,379.972 2961.36,377.784 2961.43,375.645C2961.62,369.595 2971.06,368.812 2975.34,367.017C2978.77,365.574 2980.9,362.545 2984.27,361.23C2986.41,360.396 2988.81,360.658 2990.97,359.799C2997.63,357.15 3004.42,353.925 3010.94,350.871C3015.44,348.761 3026.62,347.898 3024.25,340.705C3023.74,339.144 3021.14,338.148 3019.81,337.67C3015.31,336.049 3010.28,335.716 3005.54,335.716L2990.8,335.716C2989.03,335.716 2986.27,336.478 2984.72,336.033C2978.76,334.32 2971.12,327.687 2967.21,322.692C2964.63,319.401 2963.87,315.459 2962.3,311.721C2960.78,308.063 2958.42,304.964 2957.6,300.984C2954.39,285.395 2958.23,265.943 2970.45,255.354C2973.19,252.985 2975.32,246.745 2979.03,245.932C2980.95,245.513 2981.72,249.641 2982.14,250.877C2983.7,255.436 2983.48,259.318 2978.94,261.853C2977.62,262.591 2978.12,258.013 2978.12,257.626C2978.12,253.587 2978.46,249.636 2978.46,245.605C2978.46,245.044 2977.86,242.132 2979.18,242.741C2981.85,243.975 2982.6,247.909 2982.99,250.41C2983.39,253.006 2983.97,256.685 2983.19,259.25C2981.03,266.327 2970.16,269.873 2966.08,275.396C2963.08,279.461 2963.14,286.041 2959.05,289.367C2955.68,292.106 2950.24,292.518 2946.14,292.929C2934.53,294.09 2925.11,292.015 2913.87,288.804C2903.62,285.876 2899.13,271.781 2899.11,262.182C2899.1,256.486 2897.22,251.346 2896.92,245.854C2896.28,234.257 2897.57,219.525 2891.12,209.184C2889.4,206.422 2886.32,208.642 2885.59,211.039C2884.65,214.123 2885.48,218.363 2885.48,221.627L2885.48,225.459C2885.48,225.525 2885.53,227.449 2885.73,227.3C2886.56,226.695 2885.84,225.253 2885.84,224.228C2885.84,220.232 2885.37,215.932 2885.84,211.953C2885.95,211.044 2887.52,209.996 2887.82,209.021C2888.58,206.575 2888.78,195.305 2892.55,200.294C2893.05,200.957 2893.65,201.702 2893.99,202.471C2896.69,208.551 2889.87,215.426 2889.4,221.407C2888.89,227.899 2888.67,234.726 2889.04,241.229C2889.33,246.372 2890.46,250.972 2889.53,256.306C2887.85,265.976 2881.82,274.212 2871.99,275.167C2866.99,275.654 2862.76,274.561 2857.91,274.112C2854.45,273.792 2850.4,274.216 2847.06,273.291C2842.23,271.953 2840.78,268.135 2835.28,268.06C2832.9,268.028 2827.2,264.234 2825.13,265.835C2823.18,267.338 2823.24,270.771 2823.24,272.94C2823.24,276.883 2816.78,282.418 2818.3,286.099C2819.45,288.884 2828.14,287.982 2827.76,291.784C2827.37,295.705 2824.5,298.839 2822.3,301.871C2817.81,308.031 2816.92,316.233 2812.26,322.237C2800.09,337.93 2779.76,326.34 2763.99,333.933C2758.69,336.488 2757.24,340.599 2757.24,345.879C2757.24,346.948 2756.66,347.013 2755.65,347.034C2755.17,347.045 2753.72,347.034 2754.2,347.034C2758.08,347.034 2753.44,342.501 2755.94,342.158C2758.97,341.743 2761.57,344.328 2764.21,345.349C2767.65,346.682 2771.2,346.358 2774.83,346.358C2782.05,346.358 2788.11,342.929 2795.61,343.278C2801.91,343.57 2808.04,347.602 2814.13,347.775C2822.6,348.014 2830.17,345.602 2837.72,350.959C2850.87,360.294 2846.44,372.642 2848.16,386.73C2848.53,389.73 2849.11,392.498 2850.7,395.099C2850.86,395.37 2852.1,397.861 2852.93,397.666C2854.63,397.261 2853.44,394.195 2853.46,392.446C2853.55,383.902 2853.19,375.354 2851.46,366.964C2851.38,366.582 2851.75,367.686 2851.89,368.046C2852.34,369.113 2852.78,370.178 2853.21,371.252C2853.97,373.169 2854.68,375.105 2855.44,377.021C2858.38,384.38 2861.04,391.916 2864.21,399.174C2864.29,399.366 2865.67,403.613 2866.96,403.173C2867.76,402.899 2867.95,400.766 2867.97,400.644C2868.88,395.791 2869.12,390.893 2869.31,385.972C2869.41,383.486 2869.55,381.001 2869.62,378.514C2869.65,377.751 2869.65,375.465 2869.71,376.226C2869.99,380.033 2870.13,383.878 2870.37,387.689C2870.61,391.581 2870.58,392.349 2870.59,396.134C2870.59,396.204 2869.91,406.682 2871.84,402.252C2872.31,401.175 2872.7,400.063 2873.06,398.946C2873.62,397.232 2874.08,395.487 2874.6,393.761C2876.2,388.474 2877.71,383.133 2879.46,377.893C2879.57,377.548 2878.58,377.293 2879.3,376.729C2880.06,376.132 2881.99,373.648 2882,374.616C2882.02,376.416 2882,378.215 2882,380.015C2882,388.068 2882.34,396.172 2881.6,404.204C2881.12,409.413 2879.85,414.567 2879.52,419.788C2879.36,422.397 2881.1,419.996 2881.1,417.38C2881.1,416.433 2880.83,419.256 2880.68,420.192C2880.4,421.974 2880.1,423.752 2879.84,425.536C2878.96,431.412 2878.65,437.166 2878.65,443.099C2878.65,444.177 2878.09,446.766 2879.3,447.503C2880.43,448.185 2881.78,448.208 2883.05,448.208C2891.43,448.208 2888.22,437.181 2888.22,430.856C2888.22,429.591 2888.22,428.326 2888.22,427.062L2888.22,423.386C2888.22,422.798 2887.38,421.816 2887.94,421.645C2900.97,417.691 2912.53,410.043 2923.24,401.585C2927.24,398.428 2931.2,393.804 2935.45,391.016C2936.45,390.356 2936.03,393.375 2936.04,394.578C2936.05,397.122 2935.8,399.806 2936.04,402.342C2936.18,403.789 2940.84,402.248 2941.87,402.902C2942.19,403.106 2942.4,407.43 2942.53,407.089C2944.19,402.733 2934.56,400.703 2932.13,400.063C2921.74,397.325 2910.72,396.495 2900.02,396.387C2897.15,396.357 2894.28,396.289 2891.42,396.385C2890.54,396.414 2889.65,396.483 2888.77,396.612C2887.93,396.736 2885.6,397.843 2886.34,397.421C2893.85,393.144 2900.79,385.853 2907.06,380.087C2914.95,372.824 2922.24,365.044 2929.68,357.325C2930.98,355.974 2932.32,354.66 2933.64,353.326C2934.57,352.38 2935.51,351.443 2936.44,350.487C2936.87,350.032 2938.14,348.637 2937.66,349.039C2925.79,358.881 2912.71,368.099 2901.78,378.951C2899.77,380.943 2897.85,383.026 2895.96,385.129C2895.13,386.046 2892.89,387.657 2893.97,388.249C2896.48,389.624 2901.12,386.455 2902.93,385.295C2910.56,380.374 2917.34,374.188 2923.91,367.96C2927.44,364.615 2927.26,364.59 2930.91,361.422C2931.82,360.63 2933.39,358.189 2933.85,359.304C2935.12,362.332 2930.35,369.486 2929.17,371.637C2923.46,382.068 2916.48,391.241 2908.38,399.928C2905.29,403.245 2902.05,406.376 2898.65,409.37C2897.11,410.727 2895.58,412.105 2893.99,413.406C2893.22,414.033 2892.4,414.592 2891.58,415.15C2891.18,415.421 2890.29,416.211 2890.25,415.729C2889.91,411.468 2899.48,404.541 2901.81,402.46C2914.07,391.474 2928.32,383.508 2941.41,373.679C2944.49,371.362 2947.43,368.908 2950.13,366.148C2951.37,364.878 2953.25,361.744 2955.08,361.121C2955.96,360.822 2953.83,362.5 2953.14,363.123C2951.62,364.499 2950.09,365.868 2948.55,367.216C2942.09,372.848 2935.61,378.498 2929.02,383.97C2927.95,384.862 2926.83,385.7 2925.72,386.546C2924.94,387.139 2922.51,388.765 2923.38,388.326C2931.68,384.166 2938.69,376.258 2946.32,370.953C2949.25,368.912 2951.1,367.823 2954.05,365.915C2955.64,364.887 2955.91,364.717 2957.16,363.776C2957.48,363.529 2958.1,362.439 2957.86,362.767C2954.42,367.382 2951.66,372.945 2948.51,377.809C2947.31,379.671 2946.08,381.516 2944.91,383.398C2944.48,384.081 2943.04,385.868 2943.77,385.525C2947.66,383.69 2951.97,377.24 2954.61,374.264C2961.06,366.988 2967.03,359.045 2974.29,352.524C2977.14,349.957 2978.68,349.574 2982.36,349.574C2983.81,349.574 2987.36,350.012 2988.16,348.134C2988.54,347.269 2986.28,347.98 2985.34,348.032C2981.48,348.247 2980.87,348.529 2976.52,349.206C2969.2,350.345 2961.85,351.756 2954.47,352.395C2953.51,352.478 2949.47,353.238 2948.38,352.479C2945.66,350.599 2945.76,341.822 2944.53,338.909C2941.3,331.339 2934.27,326.217 2929.59,319.629C2925.43,313.769 2922.03,309.027 2915.66,305.617C2915.08,305.305 2911.43,303.325 2913.11,301.984C2917.87,298.195 2924.35,307.807 2926.11,310.093C2930.45,315.745 2934.33,321.701 2939.16,326.987C2943.58,331.843 2948.64,335.912 2952.7,341.138C2955.52,344.767 2955.18,344.759 2957.99,348.653C2959.03,350.088 2960.21,351.42 2961.26,352.846C2961.52,353.198 2961.98,354.292 2962.08,353.868C2962.82,350.715 2960.58,346.56 2959.22,343.913C2954.98,335.682 2948.82,328.785 2944.85,320.321C2943.18,316.755 2941.5,312.78 2940.95,308.846C2940.78,307.595 2940.73,306.389 2940.73,305.13C2940.73,304.588 2939.82,303.159 2940.04,303.656C2944.86,314.697 2953.57,328.177 2963.44,335.391C2968.15,338.834 2972.15,342.577 2974.84,347.857C2975.71,349.552 2975.58,349.472 2976.19,351.172C2976.39,351.724 2977.46,352.588 2976.91,352.778C2973.33,354.002 2966.38,352.824 2962.76,352.764C2955.81,352.648 2946.26,349.407 2940.76,344.984C2939.6,344.052 2939.65,342.211 2938.62,341.265C2936.74,339.518 2934.58,338.989 2933.87,336.035C2932.41,329.991 2933.35,325.674 2929.58,319.926C2924.17,311.655 2916.57,308.138 2908.63,302.612C2901.1,297.37 2891.65,288.81 2881.93,288.051C2871.61,287.245 2860.92,290.608 2853,297.251C2850.36,299.463 2848.17,301.935 2846.02,304.606C2845.58,305.16 2844.03,307.011 2843.5,307.733C2843.22,308.109 2842.43,309.242 2842.78,308.935C2845.77,306.329 2848.15,302.928 2850.67,299.911C2853.3,296.767 2854.92,294.958 2857.44,291.861C2858.25,290.868 2859.05,289.862 2859.83,288.848C2860.25,288.313 2862.61,285.696 2862.95,284.55C2863.32,283.349 2860.39,284.332 2859.2,284.7C2855.43,285.859 2852.09,288.302 2848.52,289.936C2848.39,289.998 2846.2,291.228 2845.87,291.181C2844.49,290.983 2850.87,285.857 2845.15,286.945C2842.1,287.526 2839.87,290.03 2837.52,291.839C2836.47,292.647 2837.61,294.52 2837.3,295.811C2836.64,298.64 2835.95,299.851 2834.74,302.503C2831.06,310.555 2822.06,325.165 2827.33,333.999C2827.97,335.087 2829.03,336.295 2829.92,337.094C2837.07,343.492 2838.97,334.8 2840.05,328.947C2840.17,328.298 2841.48,320.768 2839.7,321.28C2837.68,321.862 2836.38,327.075 2835.59,328.722C2832.49,335.21 2829.74,339.894 2821.69,340.462C2820.64,340.536 2818.11,340.91 2817.09,340.474C2816.25,340.119 2816.81,336.632 2816.97,335.916C2817.89,331.851 2821.21,327.954 2824.21,325.248C2828.45,321.421 2835.2,320.969 2840.19,318.404C2847.83,314.479 2857.08,308.081 2863.3,302.039C2865.8,299.616 2868.45,298.725 2871.8,297.771C2872.05,297.701 2876.74,295.904 2876.46,295.628C2875.8,294.952 2868.26,295.56 2868.16,295.56C2859.53,295.558 2853.57,296.655 2846.87,291.403C2843.46,288.732 2839.43,287.361 2835.85,285.013C2835.83,284.995 2832.13,282.277 2833.14,281.783C2835.86,280.457 2839.62,280.641 2842.53,280.613C2846.11,280.577 2850.14,280.109 2853.59,281.35C2857.21,282.653 2859.87,285.447 2863.14,287.281C2867.17,289.535 2874.73,291.482 2879.38,291.813C2885.4,292.24 2889.2,288.404 2892.66,283.731C2893.5,282.592 2894.08,281.318 2894.6,280.01C2894.9,279.232 2896.68,277.43 2896.03,277.954C2893.37,280.1 2892.2,284.06 2889.44,286.099C2886.51,288.259 2882.5,289.452 2879.34,291.344C2875.42,293.692 2872.14,297.416 2868.28,300.041C2865.52,301.924 2860.74,303.882 2858.71,306.653C2855.04,311.664 2854.03,318.085 2851.47,323.599" style="fill:none;stroke:rgb(109,128,253);stroke-width:20.83px;"/>
                </g>
                <g transform="matrix(1,0,0,1,208.583,265.525)">
                    <path d="M801,715.473C801,712.904 803.286,712.399 805.149,711.13C808.286,708.995 808.849,707.987 812.581,706.768" style="fill:none;stroke:rgb(109,128,253);stroke-width:18.75px;"/>
                </g>
                <g transform="matrix(1,0,0,1,208.583,265.525)">
                    <path d="M781.801,715.82C786.951,715.647 792.298,720.855 795.906,723.727C797.912,725.325 800.885,727.374 801.018,730.232C801.119,732.424 795.938,731.441 794.102,731.563C793.402,731.609 788.647,732.382 788.779,731.221C788.881,730.312 790.552,732.087 790.936,732.918C791.715,734.605 793.228,738.922 793.746,740.385C795.626,745.707 797.268,751.076 798.958,756.458C799.654,758.677 800.474,763.752 802.35,765.543C803.721,766.852 803.198,762.093 803.595,761.647C804.305,760.851 809.212,761.681 809.942,761.819C814.58,762.701 818.215,765.648 822.556,767.159C825.472,768.173 828.992,767.703 831.998,767.703C839.941,767.703 850.798,766.238 857.227,761.05C863.762,755.778 866.721,745.291 865.3,737.092C864.735,733.83 862.282,730.484 860.787,727.589C858.015,722.224 857.476,715.06 853.805,710.129C852.379,708.215 849.867,707.432 847.859,706.328C840.757,702.421 833.573,701.761 825.675,699.68C823.845,699.197 821.855,698.544 820.205,697.577C818.313,696.467 818.714,695.165 816.318,695.165" style="fill:none;stroke:rgb(109,128,253);stroke-width:18.75px;"/>
                </g>
                <path d="M1131.96,974.691C1141.31,975.78 1150.62,976.979 1160.01,977.664C1165.21,978.043 1173.97,977.317 1178.8,980.475C1181.53,982.254 1188.08,984.355 1189.16,997.911C1189.82,1006.2 1183.38,1012.83 1177,1016.99C1164.76,1024.96 1148.29,1019.99 1134.59,1022.53C1127.72,1023.8 1121.5,1027.67 1119.41,1034.57C1118.57,1037.35 1118.32,1040.32 1118.39,1043.21C1118.88,1062.63 1135.83,1067.2 1145.62,1081.05C1151.71,1089.67 1148.95,1104.37 1140.38,1110.53C1126.38,1120.62 1110.96,1111.63 1100.86,1100.31C1093.16,1091.68 1088.69,1082.08 1075.78,1084.25C1073.75,1084.59 1071.69,1085.11 1069.83,1086.01C1050.61,1095.34 1061.04,1120.01 1056.62,1136.12C1054.36,1144.32 1049.01,1151.95 1036.8,1153.29C1033.94,1153.6 1028.7,1151.78 1026.4,1150.25C1010.23,1139.47 1014.61,1121.76 1013.53,1104.9C1013.05,1097.23 1011.22,1088.11 1003.22,1085.23C985.794,1078.96 970.12,1094.2 956.738,1103.05C952.083,1106.13 946.316,1112.01 940.472,1112.04C936.919,1112.06 932.289,1108.53 929.666,1106.43C927.704,1104.87 926.034,1102.99 924.653,1100.9C919.298,1092.78 924.117,1081.88 929.651,1075.44C937.104,1066.75 945.199,1058.91 951.609,1049.35C953.474,1046.57 957.459,1041.75 957.374,1038.17C957.283,1034.35 955.653,1029.54 953.703,1026.28C950.085,1020.22 942.229,1018.62 935.667,1018.29C919.993,1017.5 894.973,1026.7 886.215,1008.5C885.1,1006.18 884.417,1003.7 884.178,1001.14C882.937,987.897 893.17,980.775 904.841,978.096C922.563,974.027 934.319,974.882 943.682,955.422C947.86,946.739 941.818,936.39 935.667,930.735C925.123,921.042 923.784,915.46 926.142,898.549C926.485,896.09 927.184,893.653 928.204,891.39C933.546,879.548 945.152,878.933 955.461,884.693C966.285,890.741 973.623,901.182 983.702,908.143C989.583,912.205 997.306,914.802 1004.3,911.864C1024.75,903.274 1014.24,875.179 1016.61,858.714C1018.6,844.847 1031.94,840.015 1044.04,843.09C1053.99,845.619 1059.21,857.572 1059.81,866.942C1060.57,879.032 1054.12,899.082 1064.09,909.199C1066.92,912.066 1070.77,913.979 1074.47,915.421C1081.77,918.258 1088.68,915.525 1094.58,910.726C1103.91,903.118 1109.63,892.052 1118.76,884.277C1127.89,876.491 1140.38,881.666 1145.68,891.651C1147.49,895.064 1149.49,899.021 1149.92,902.944C1152.01,921.593 1127,930.567 1121.04,945.622C1115.79,958.851 1117.76,971.665 1131.96,974.691Z" style="fill:none;stroke:black;stroke-width:20.83px;"/>
                <path d="M926.592,1140.06C934.409,1137.51 942.413,1134.96 949.31,1130.34C954.052,1127.15 958.627,1123.44 962.025,1118.81C967.804,1110.93 968.276,1099.96 967.858,1090.59C966.745,1065.66 953.005,1043.99 944.266,1021.16C940.905,1012.38 938.965,1003.1 936.069,994.161C928.279,970.124 920.331,946.034 911.723,922.284C906.698,908.419 902.756,894.335 899.182,880.036C897.449,873.103 893.516,864.569 897.612,857.644C905.522,844.271 926.239,854.086 936.372,858.023C939.569,859.265 942.798,860.424 945.992,861.675C994.134,880.535 1041.63,900.207 1091.79,913.147C1105.21,916.607 1118.84,919.12 1132.65,920.36C1139.93,921.014 1148.59,921.67 1155.35,918.07C1165.67,912.575 1170.15,902.023 1172.35,891.148C1173.25,886.691 1173.01,878.767 1176.24,875.468C1183.14,868.403 1192.57,870.09 1198.82,876.542C1205.58,883.523 1200.79,897.954 1198.45,906.065C1190.43,933.834 1165.95,956.934 1135.63,954.176C1121.91,952.928 1108.65,948.389 1095.47,944.599C1068.28,936.78 1041.86,927.131 1014.52,919.801C1004.19,917.031 994.314,913.121 984.193,909.73C982.022,909.002 979.85,908.272 977.704,907.474C977.537,907.412 975.772,906.598 975.68,906.693C968.247,914.388 961.026,922.207 953.296,929.62C951.503,931.339 949.702,933.052 947.905,934.767C947.754,934.911 946.161,936.261 946.207,936.382C952.701,953.788 958.224,971.496 964.589,988.93C969.062,1001.18 974.945,1012.88 979.275,1025.2C982.406,1034.11 984.096,1043.26 986.525,1052.35C992.125,1073.33 998.055,1095.11 995.732,1117.12C993.931,1134.18 978.515,1146.44 965.44,1155.41C954.103,1163.19 943.014,1169.97 928.893,1167.54C918.588,1165.77 912.318,1155.47 918.118,1145.96C919.821,1143.17 922.97,1141.34 925.797,1139.89" style="fill:rgb(109,128,253);stroke:black;stroke-width:20.83px;"/>
                <g transform="matrix(0.677782,0,0,0.677782,334.032,321.262)">
                    <path d="M1008.25,985.401C1013.4,973.719 1023.83,963.846 1037.42,964.395C1042.33,964.593 1046.9,966.942 1051.09,969.347C1063.5,976.469 1070.5,986.47 1068.85,1000.87C1068.51,1003.89 1068.1,1007.07 1066.75,1009.83C1065.27,1012.84 1062.91,1015.45 1060.68,1017.91C1057.25,1021.69 1053.32,1025.64 1048.63,1027.81C1042.64,1030.6 1033.69,1029.91 1027.46,1028.2C1021.49,1026.57 1015.03,1023.21 1010.94,1018.47C1004.2,1010.65 1001.91,996.99 1007,987.859" style="fill:none;stroke:black;stroke-width:30.74px;"/>
                </g>
            </g>
        </g>
    </g>
</svg>
