<?xml version="1.0" encoding="UTF-8" standalone="no"?>
<!DOCTYPE svg PUBLIC "-//W3C//DTD SVG 1.1//EN" "http://www.w3.org/Graphics/SVG/1.1/DTD/svg11.dtd">
<svg width="100%" height="100%" viewBox="0 0 248 249" version="1.1" xmlns="http://www.w3.org/2000/svg" xmlns:xlink="http://www.w3.org/1999/xlink" xml:space="preserve" xmlns:serif="http://www.serif.com/" style="fill-rule:evenodd;clip-rule:evenodd;stroke-linecap:round;stroke-linejoin:round;">
    <g transform="matrix(1,0,0,1,-225.054,-1291.72)">
        <g>
            <g id="path2114-3" transform="matrix(4.20156,0,0,4.20156,-3365.17,-2644.76)">
                <path d="M883.933,938.409C881.74,938.444 879.964,940.276 879.997,942.469L879.997,946.461C879.992,946.626 879.997,946.79 880.012,946.954C880.021,947.046 880.026,947.138 880.027,947.231C880.027,949.425 878.222,951.231 876.027,951.231C874.874,951.228 873.777,950.728 873.02,949.858C872.915,949.731 872.803,949.61 872.684,949.497L869.856,946.668C869.103,945.892 868.066,945.452 866.984,945.452C866.983,945.452 866.981,945.452 866.98,945.452C864.785,945.452 862.979,947.258 862.979,949.452C862.979,950.533 863.417,951.57 864.193,952.323L867.029,955.151C867.123,955.251 867.223,955.346 867.326,955.436C867.417,955.511 867.505,955.59 867.588,955.672C869.14,957.224 869.14,959.777 867.588,961.328C866.754,962.161 865.593,962.584 864.418,962.483C864.418,962.486 864.417,962.49 864.416,962.494C864.276,962.478 864.136,962.469 863.995,962.468L859.995,962.468C857.801,962.471 855.998,964.276 855.998,966.47C855.998,968.663 857.801,970.468 859.995,970.471L863.995,970.471C864.13,970.471 864.266,970.463 864.401,970.449C864.401,970.453 864.402,970.456 864.403,970.46C864.522,970.448 864.642,970.442 864.762,970.441C866.957,970.441 868.762,972.247 868.762,974.441C868.761,975.62 868.239,976.739 867.336,977.498C867.337,977.499 867.338,977.499 867.338,977.5C867.231,977.588 867.128,977.681 867.03,977.779L864.194,980.615C863.441,981.366 863.017,982.386 863.017,983.45C863.017,985.644 864.823,987.451 867.018,987.451C868.083,987.451 869.105,987.025 869.856,986.269L872.684,983.441C872.783,983.345 872.877,983.244 872.966,983.139C872.966,983.139 872.967,983.139 872.968,983.139C873.042,983.048 873.121,982.961 873.204,982.877C873.954,982.127 874.972,981.705 876.033,981.705C877.094,981.705 878.112,982.127 878.862,982.877C879.694,983.711 880.116,984.871 880.014,986.045C880.017,986.045 880.019,986.045 880.022,986.045C880.007,986.185 879.999,986.326 879.999,986.467L879.999,990.467C879.997,990.521 879.996,990.576 879.996,990.63C879.996,992.825 881.802,994.631 883.996,994.631C886.191,994.631 887.997,992.825 887.997,990.63C887.997,990.576 887.996,990.521 887.993,990.467L887.993,986.467C887.995,986.332 887.99,986.197 887.978,986.063C887.982,986.063 887.986,986.063 887.99,986.063C887.978,985.944 887.972,985.826 887.971,985.707C887.971,985.707 887.971,985.707 887.971,985.707C887.971,983.513 889.776,981.707 891.971,981.707C891.971,981.707 891.971,981.707 891.971,981.707C893.147,981.709 894.265,982.229 895.023,983.129C895.024,983.129 895.025,983.129 895.025,983.129C895.115,983.239 895.21,983.344 895.31,983.443L898.139,986.271C898.892,987.055 899.934,987.498 901.021,987.498C903.216,987.498 905.022,985.692 905.022,983.497C905.022,982.411 904.58,981.371 903.799,980.617L900.965,977.781C900.869,977.684 900.769,977.591 900.664,977.504C900.665,977.502 900.666,977.501 900.668,977.5C900.578,977.426 900.492,977.347 900.41,977.266C898.859,975.714 898.859,973.161 900.41,971.609C901.244,970.778 902.403,970.356 903.576,970.457C903.577,970.453 903.577,970.449 903.578,970.446C903.717,970.462 903.857,970.471 903.998,970.472L908,970.472C910.195,970.472 912.002,968.666 912.002,966.47C912.002,964.275 910.195,962.468 908,962.468L903.997,962.468C903.862,962.469 903.727,962.476 903.593,962.491C903.592,962.487 903.591,962.483 903.591,962.479C903.472,962.491 903.354,962.497 903.235,962.498C903.235,962.498 903.235,962.498 903.235,962.498C901.041,962.498 899.235,960.693 899.235,958.498C899.237,957.328 899.752,956.216 900.643,955.457C900.755,955.362 900.862,955.26 900.963,955.153L903.797,952.325C904.571,951.572 905.007,950.537 905.007,949.458C905.007,947.264 903.201,945.458 901.007,945.458C900.968,945.458 900.928,945.458 900.889,945.459C899.85,945.49 898.862,945.924 898.137,946.67L895.309,949.498C895.194,949.608 895.086,949.724 894.985,949.846C894.923,949.919 894.86,949.99 894.793,950.059C894.044,950.809 893.025,951.231 891.964,951.231C890.904,951.231 889.885,950.809 889.135,950.059C888.324,949.244 887.903,948.118 887.979,946.971C887.982,946.937 887.984,946.903 887.987,946.869C887.996,946.734 887.998,946.599 887.994,946.463L887.994,942.471C887.994,942.451 887.995,942.431 887.995,942.411C887.995,940.216 886.189,938.41 883.994,938.41C883.975,938.41 883.955,938.41 883.935,938.411L883.933,938.409Z" style="fill:rgb(190,38,77);fill-rule:nonzero;stroke:rgb(107,21,43);stroke-width:3px;"/>
            </g>
            <g id="path2400-1-9" transform="matrix(4.20156,0,0,4.20156,-3365.17,-2644.76)">
                <circle cx="884" cy="966.52" r="6" style="fill:rgb(190,38,77);stroke:rgb(107,21,43);stroke-width:3px;"/>
            </g>
        </g>
    </g>
</svg>
