<?xml version="1.0" encoding="UTF-8" standalone="no"?>
<!DOCTYPE svg PUBLIC "-//W3C//DTD SVG 1.1//EN" "http://www.w3.org/Graphics/SVG/1.1/DTD/svg11.dtd">
<svg width="100%" height="100%" viewBox="0 0 326 334" version="1.1" xmlns="http://www.w3.org/2000/svg" xmlns:xlink="http://www.w3.org/1999/xlink" xml:space="preserve" xmlns:serif="http://www.serif.com/" style="fill-rule:evenodd;clip-rule:evenodd;stroke-linecap:round;stroke-linejoin:round;stroke-miterlimit:1.5;">
    <g transform="matrix(1,0,0,1,-2822.52,-909.605)">
        <g transform="matrix(0.92388,-0.382683,0.382683,0.92388,232.216,1279.12)">
            <g transform="matrix(1,0,0,1,-290.528,182.569)">
                <path d="M2844.09,659.344C2829.49,653.021 2813.93,650.025 2799.11,644.299C2794.11,642.365 2787.48,640.792 2783.17,637.439C2782.44,636.868 2784.78,636.5 2785.59,636.057C2787.26,635.154 2788.95,634.309 2790.68,633.549C2796.6,630.955 2801.8,629.991 2808.17,630.401C2821.81,631.277 2835.34,633.176 2848.86,630.071C2855.68,628.502 2861.98,626.75 2865.44,620.323C2870.8,610.361 2869.24,601.478 2865.89,590.991C2864.53,586.755 2863.47,582.439 2862.57,578.086C2861.6,573.368 2859.65,567.668 2860.56,562.897C2860.7,562.201 2862.33,558.453 2863.49,558.669C2865.91,559.118 2869.01,562.749 2870.72,564.221C2872.43,565.68 2873.95,567.316 2875.34,569.074C2882.54,578.196 2887.99,588.489 2896.53,596.588C2900.86,600.697 2905.94,604.484 2912.28,604.258C2918.41,604.04 2924.16,600.432 2929.23,597.375C2936.43,593.032 2943.89,587.951 2949.85,581.863C2952.75,578.892 2955.42,575.416 2956.75,571.437C2958.22,567.06 2958.34,562.26 2960.92,558.31C2961.61,557.261 2964.7,558.874 2965.21,559.419C2967.85,562.231 2968.81,564.994 2968.31,568.785C2967.96,571.483 2967.15,574.116 2966.43,576.735C2965.17,581.347 2963.92,585.958 2962.53,590.536C2960.27,598.024 2955.9,611.009 2959.8,619.03C2966.04,631.867 2981.29,639.034 2994.05,642.753C3000.15,644.532 3006.22,646.179 3012.31,643.964C3018.38,641.759 3024.13,638.353 3029.62,634.969C3029.96,634.758 3034.39,632.359 3034.3,631.79C3033.85,628.764 3027.46,632.826 3026.72,633.113C3020.33,635.594 3014.02,638.348 3007.36,640.071L3042.05,631.528C3042.38,629.917 3041.26,629.672 3040.4,628.399C3039.03,626.359 3037.37,620.551 3033.06,622.618C3031.04,623.583 3029.02,627.555 3027.61,629.205C3022.62,635.012 3017.2,640.428 3012.25,646.257C3009.42,649.576 3006.38,648.058 3003.25,650.483C2999.73,653.209 2996.59,656.486 2993.45,659.622C2991.91,661.157 2989.08,663.188 2988.46,665.442C2987.65,668.376 2989.16,671.088 2988.78,674.148C2988.4,677.224 2987.11,680.04 2987.84,683.239C2989.01,688.368 2992.91,691.951 2995.98,695.864C2998.78,699.427 3000.98,703.44 3003.5,707.197C3005.1,709.584 3006.89,713.17 3009.63,714.487C3015.28,717.201 3021.04,720.296 3026.89,722.727C3030.11,724.067 3030.26,721.758 3032.6,722.06C3034.78,722.342 3037.29,728.282 3037.47,730.054C3038.31,738.52 3023.88,734.011 3019.64,733.257C3017.58,732.891 3015.6,732.303 3013.91,731.027C3013.3,730.563 3012.39,729.15 3011.59,728.979C3009.5,728.529 3006.93,728.774 3004.79,728.48C3001.05,727.965 2996.83,726.26 2992.96,726.797C2986.78,727.654 2979.66,732.809 2975.59,737.123C2974.04,738.76 2973.71,740.918 2972.47,742.779C2969.39,747.406 2966.38,752.022 2963.44,756.744C2961.78,759.426 2958.62,762.888 2958.05,766.048C2957.74,767.762 2959.64,770.331 2960.31,771.643C2961.85,774.652 2963.18,777.687 2964.2,780.916C2964.87,783.064 2966.32,787.389 2965.74,789.983C2965.54,790.88 2963.95,791.707 2963.45,792.524C2962.69,793.762 2960.95,798.562 2961.23,799.955C2961.44,801.001 2966.26,799.309 2966.41,800.637C2966.76,803.793 2962.63,803.268 2961.1,805.044C2960.17,806.121 2962.34,809.055 2960.94,809.31C2958.31,809.79 2957.72,807.167 2956.41,805.424C2952.94,800.834 2950.03,795.86 2946.74,791.144C2944.76,788.308 2942.31,785.946 2940.2,783.212C2938.49,781.002 2937.38,777.87 2935.53,775.854C2934.87,775.143 2930.1,775.001 2928.93,774.544C2926.13,773.455 2922.77,773.553 2920.08,772.403C2915.59,770.481 2909.27,765.81 2903.96,766.985C2898.24,768.254 2896.17,773.409 2893.03,777.348C2889.53,781.755 2885.38,786.059 2882.38,790.834C2879.04,796.127 2877.56,800.44 2872.89,804.832C2870.1,807.454 2866.54,808.427 2863,809.562C2862.42,809.747 2859.66,810.559 2859.16,809.856C2857.73,807.852 2858.61,802.306 2858.61,799.972C2858.61,796.968 2858.02,793.274 2858.68,790.332C2860.86,780.514 2869.57,772.537 2870.87,762.304C2871.25,759.334 2869.33,759.028 2867.78,756.879C2865.72,754.013 2864.37,750.721 2862.39,747.809C2860.98,745.736 2858.99,740.837 2856.95,739.582C2854.43,738.028 2848.17,738.953 2845.16,738.701C2841.06,738.358 2836.83,739.056 2832.75,738.589C2823.5,737.531 2814.08,736.339 2804.67,736.359C2802.72,736.364 2802.82,736.341 2800.91,736.462C2796.92,736.716 2792.88,736.577 2788.87,736.577C2787.96,736.577 2785.96,736.704 2785.43,735.696C2783.17,731.396 2792.09,726.585 2795.15,725.618C2810.17,720.879 2828.67,708.586 2833.34,692.484C2834.22,689.44 2833.63,685.805 2833.87,682.663C2834.52,674.417 2834.93,665.245 2834.09,656.995C2833.76,653.74 2832.89,650.361 2831.88,647.259C2831.55,646.26 2831.12,645.272 2830.65,644.327C2830.65,644.318 2830.01,643.2 2830.16,643.162C2833.64,642.246 2838.33,643.219 2841.91,643.124C2846.29,643.009 2850.26,641.813 2854.37,640.394C2857.76,639.22 2861.58,638.238 2863.32,634.782C2869.14,623.21 2869.93,610.356 2875.2,598.623C2876.31,596.161 2877.29,590.105 2879.28,588.482C2879.56,588.25 2879.41,589.204 2879.47,589.566C2879.64,590.666 2879.76,591.776 2879.95,592.874C2880.46,595.826 2880.71,598.951 2881.66,601.811C2883.61,607.685 2891.83,608.212 2896.61,609.396C2899.14,610.025 2902.46,609.301 2905.08,609.396C2913.59,609.705 2921.94,609.957 2930.22,607.52C2933.64,606.512 2937.25,605.081 2940.48,603.549C2941.66,602.984 2942.77,602.286 2943.78,601.455C2943.85,601.402 2945.3,599.865 2945.39,600.241C2946.54,605.295 2940.29,610.757 2943.29,615.975C2946.23,621.082 2950.5,625.888 2954.46,630.224C2955.3,631.147 2956.9,633.872 2957.97,634.467C2966.19,639.036 2973.49,643.887 2979.04,651.624C2980.32,653.402 2982.59,655.759 2983.19,657.939C2984.57,662.888 2978.16,669.91 2975.68,673.461C2974.29,675.444 2972.67,677.908 2973.93,680.408C2976.79,686.131 2982.42,689.512 2986.13,694.311C2991.31,701.015 2992.38,711.732 2991.08,719.927C2990.93,720.844 2989.78,718.581 2989.03,718.035C2987.39,716.84 2985.45,716.597 2983.46,716.537C2976.8,716.335 2970.47,718.65 2966.45,724.282C2962.1,730.365 2963.31,736.122 2960.76,742.575C2958.57,748.155 2953.54,753.082 2952.22,758.96C2951.5,762.14 2951.93,766.67 2952.21,769.936C2952.26,770.468 2952.83,773.98 2952.28,774.421C2950.25,776.038 2947.29,769.635 2946.75,768.69C2942.63,761.536 2938.36,753.727 2928.8,756.759C2921.19,759.17 2914.55,760.66 2906.51,762.26C2900.09,763.536 2893.48,764.609 2888.92,769.669C2885.34,773.649 2882.21,778.283 2879.41,782.846C2878.33,784.612 2877.46,786.479 2876.58,788.349C2876.3,788.94 2876.09,789.553 2875.82,790.138C2875.68,790.444 2875.41,791.429 2875.51,791.106C2876.98,786.565 2879.75,782.466 2881.34,777.929C2882.35,775.032 2883.01,772.335 2883.73,769.372C2884.51,766.182 2884.52,766.072 2885.15,762.974C2886.03,758.731 2884.89,751.334 2889.14,748.945C2893.82,746.313 2900.38,747.12 2905.45,746.78C2914.91,746.146 2923.75,743.659 2932.18,739.367C2934.03,738.428 2937.72,737.129 2939.12,735.514C2939.44,735.149 2938.16,735.625 2937.69,735.748C2936.72,736.003 2935.76,736.306 2934.8,736.601C2930.54,737.911 2926.28,739.205 2922.02,740.532C2921.19,740.791 2920.36,741.061 2919.52,741.306C2918.67,741.553 2916.12,742.09 2917,742.113C2921.12,742.222 2925.49,740.568 2929.41,739.571C2938.39,737.29 2945.25,734.964 2950.45,726.871C2951.87,724.667 2955.44,717.751 2953.7,715.225C2952.71,713.8 2947.35,714.693 2946.04,714.938C2940.45,715.984 2935.04,719.566 2930.39,722.64C2929.39,723.3 2926.73,724.791 2925.89,725.945C2925.73,726.169 2929.86,724.989 2929.86,724.987C2932.4,723.944 2934.99,722.846 2937.4,721.517C2938.19,721.083 2938.97,720.678 2939.72,720.178C2939.75,720.159 2941.15,719.25 2941.18,719.45C2941.75,724.418 2935.39,730.766 2932.74,734.509C2932.35,735.057 2929.48,737.813 2931.53,737.766C2936.97,737.642 2941.02,734.02 2944.8,730.386C2946.83,728.424 2947.12,727.861 2948.78,725.822C2949.22,725.273 2949.68,724.733 2950.14,724.192C2950.41,723.869 2951.11,722.941 2951.09,723.363C2950.77,730.238 2944.68,737.596 2941.27,743.055C2940.21,744.754 2939.06,746.399 2937.98,748.083C2937.69,748.536 2936.7,749.36 2937.22,749.511C2938.26,749.813 2940.14,748.405 2940.93,747.945C2945.21,745.455 2948.59,742.019 2951.15,737.791C2958.05,726.423 2959.47,711.764 2959.47,698.718C2959.47,694.968 2959.14,691.088 2960,687.409C2960.13,686.87 2960.72,683.949 2961.32,683.616C2961.97,683.25 2962.12,684.892 2962.43,685.576C2962.9,686.613 2963.36,687.654 2963.82,688.699C2964.36,689.953 2964.89,691.213 2965.41,692.473C2966.87,695.929 2970.05,707.529 2976.29,705.394C2977.1,705.116 2977.25,702.707 2977.28,702.262C2977.56,698.242 2977.5,693.96 2977.17,689.96C2977.05,688.458 2976.84,686.96 2976.55,685.481C2976.08,683.127 2975.22,678.734 2973.55,676.72C2971.08,673.751 2967.87,672.622 2965.75,668.688C2962.71,663.03 2961.32,656.202 2957.68,650.876C2957.36,650.408 2957.55,652.011 2957.61,652.575C2957.74,653.791 2958.2,655.006 2958.48,656.191C2959.39,660.027 2960.79,663.885 2960.84,667.871C2960.86,669.34 2960.84,670.811 2960.84,672.28C2960.84,672.868 2960.62,674.548 2960.91,674.041C2962.44,671.427 2960.85,664.117 2959.74,661.534C2958.53,658.73 2957.49,655.26 2955.07,653.201C2952.83,651.285 2949.63,650.9 2947.33,649.111C2942.31,645.205 2937.34,641.148 2931.79,637.677C2927.29,634.86 2918.75,636.822 2914,637.008C2909.08,637.202 2903.84,636.24 2899.22,638.344C2896.79,639.446 2896.08,642.419 2893.95,644C2891.09,646.129 2887.61,647.346 2885.03,649.88C2879.88,654.957 2878.8,660.723 2875.28,666.846C2871.95,672.663 2866.2,678.704 2864.69,685.405C2863.97,688.594 2865.2,692.649 2865.52,695.823C2866.21,702.687 2866.97,709.657 2868.7,716.358C2869.11,717.909 2874.32,719.205 2875.74,720.317C2878.56,722.515 2881.24,725.983 2884.64,727.28C2886.18,727.867 2887.86,727.234 2889.39,727.686C2891.66,728.351 2893.08,730.263 2895.59,730.406C2899.2,730.612 2901.63,729.047 2904.93,728.579C2907.64,728.197 2910.6,728.579 2913.34,728.579C2914,728.579 2912.07,728.934 2911.42,729.068C2909.54,729.455 2907.03,729.798 2905.22,730.017C2900.87,730.545 2893.45,732.027 2889.28,729.977C2885.42,728.082 2879.78,723.588 2879.36,719.051C2879.17,716.951 2879.19,714.795 2878.74,712.725C2878.68,712.451 2877.59,710.285 2877.58,710.38C2876.32,720.142 2879.63,730.719 2883.21,739.653C2884.58,743.061 2886.04,746.412 2887.33,749.854C2887.58,750.521 2889.06,753.094 2888.66,754.028C2888.32,754.828 2887.13,753.135 2886.57,752.473C2884.61,750.175 2882.91,747.751 2881.37,745.149C2876.36,736.676 2872.92,727.415 2868.81,718.503C2868.48,717.781 2865.68,710.075 2864.41,709.945C2863.39,709.84 2864.36,712.004 2864.36,713.033C2864.36,714.042 2864.36,715.05 2864.36,716.058C2864.36,720.093 2864.36,724.127 2864.36,728.162C2864.36,729.151 2865.22,730.844 2864.27,731.127C2861.64,731.909 2858.04,731.09 2855.33,731.26C2848.79,731.668 2842.56,732.912 2835.98,732.755C2834.88,732.728 2829.37,732.132 2828.82,730.887C2828.31,729.758 2831.18,730.166 2832.37,729.812C2836.39,728.61 2840.47,727.548 2844.46,726.228C2845.14,726.004 2846.49,726.163 2846.45,725.45C2846.4,724.379 2844.33,725.092 2843.26,725.074C2841.54,725.045 2839.82,725.071 2838.1,725.071C2832.13,725.069 2826.16,724.928 2820.21,725.569C2819.06,725.693 2817.91,725.898 2816.76,726.057C2816.13,726.145 2815.49,726.241 2814.85,726.31C2814.51,726.346 2813.56,726.525 2813.83,726.323C2820.93,721.033 2835.17,723.631 2843.41,723.631L2851.74,723.631C2851.99,723.631 2854.36,723.944 2854.67,723.407C2855.9,721.252 2853.93,716.651 2853.45,714.623C2852.03,708.629 2851.69,702.741 2851.68,696.596C2851.68,695.636 2852.43,689.81 2851.64,688.805C2851.43,688.548 2851.29,689.359 2851.14,689.653C2850.75,690.467 2850.38,691.292 2849.95,692.089C2849.26,693.387 2848.54,694.676 2847.78,695.937C2845.49,699.742 2842.9,703.306 2840.2,706.822C2839.3,707.99 2838.39,709.155 2837.48,710.31C2837.24,710.613 2836.83,711.655 2836.83,711.268C2836.8,706.581 2843.34,701.626 2845.74,697.95C2849.69,691.883 2849.51,684.821 2850.82,677.756C2851.82,672.367 2854.79,664.291 2846.46,664.698C2845.7,664.735 2847.41,665.913 2848,666.402C2849.67,667.783 2850.74,668.49 2852.67,669.625C2856.07,671.632 2864.18,674.403 2865.87,669.099C2866.88,665.901 2867.1,662.918 2867.16,659.565C2867.23,656.225 2867.17,652.978 2866.53,649.689C2866.41,649.022 2866.08,645.985 2865.02,645.536C2860.86,643.776 2856.64,647.545 2854.39,650.475C2853.68,651.409 2851.94,654.633 2853.3,655.868C2854.6,657.054 2857.35,657.283 2858.95,657.439C2867.95,658.319 2872.95,653.427 2873.77,644.526C2873.88,643.341 2874.35,640.396 2873.77,639.194C2873.54,638.703 2872.16,638.839 2872.38,638.339C2872.59,637.865 2878.21,638.246 2878.52,638.246C2884.17,638.244 2886.05,638.817 2886.46,632.68C2886.78,627.941 2885.37,623.375 2883.51,619.07C2883.2,618.354 2881.37,614.222 2880.92,613.301C2880.61,612.646 2879.98,610.966 2879.58,611.577C2875.59,617.786 2889.83,621.014 2892.71,621.687C2901.28,623.682 2910.81,626.842 2919.59,627.689C2922.83,628.001 2925.93,627.614 2929.04,626.766C2930.59,626.344 2933.22,624.901 2934.96,625.388C2936.56,625.835 2938.38,628.578 2939.26,629.824C2939.91,630.73 2941.03,631.496 2941.14,632.639" style="fill:none;stroke:rgb(190,38,78);stroke-width:18.75px;"/>
            </g>
            <g transform="matrix(1,0,0,1,1501.2,135.248)">
                <path d="M1086.42,742.337L1086.42,733.875" style="fill:none;stroke:rgb(190,38,78);stroke-width:18.75px;"/>
            </g>
            <g transform="matrix(1,0,0,1,1501.2,135.248)">
                <path d="M1086.94,742.774C1094.8,752.031 1104.32,760.075 1115.73,764.562C1119.36,765.989 1123.07,767.008 1126.91,767.695C1127.96,767.884 1129.13,768.045 1130.21,768.172C1130.74,768.235 1132.32,768.2 1131.8,768.332C1127.81,769.346 1123.81,770.287 1119.8,771.199C1119.22,771.331 1115.98,772.536 1115.14,772.22C1107.4,769.315 1100.63,763.511 1093.85,758.895C1083.81,752.067 1073.45,746.342 1066.8,735.735C1057.82,721.417 1060.36,705.433 1070.07,692.147C1073.01,688.12 1076.52,684.725 1080.05,681.247C1081.14,680.172 1082.17,679.038 1083.19,677.891C1083.58,677.452 1084.04,676.916 1084.43,676.462C1084.68,676.169 1085.5,675.362 1085.18,675.579C1073.14,683.76 1061.51,692.598 1049.18,700.345C1044.27,703.429 1038.14,707.478 1032.19,707.908C1031.47,707.96 1026.68,707.465 1026.68,706.425C1026.69,701.053 1030.94,695.14 1028.6,689.723C1027.7,687.625 1025.07,686.241 1023.28,684.991C1018.13,681.383 1012.55,678.714 1006.59,676.794C1004.11,675.994 1001.63,675.411 999.021,675.221C998.191,675.16 997.356,675.131 996.525,675.123C996.028,675.119 994.536,675.124 995.033,675.15C1011.67,676.017 1027.2,679.811 1043.54,683.117C1058.35,686.115 1072.92,688.605 1087.39,693.16C1087.9,693.322 1091.39,693.9 1091.76,694.553C1094.05,698.693 1093.83,704.753 1093.57,709.292C1093.48,710.99 1093.33,712.685 1093.14,714.376C1093.06,715.037 1092.98,715.698 1092.89,716.358C1092.84,716.716 1092.39,717.678 1092.63,717.411C1103.48,705.52 1113.29,693.736 1129.96,690.311C1134.19,689.443 1138.53,688.875 1142.74,690.136C1143.04,690.226 1145.84,690.946 1145.93,691.446C1146.31,693.43 1146.21,695.575 1146.55,697.586C1146.7,698.5 1147.99,700.444 1147.08,700.316C1144.05,699.896 1141.33,696.854 1138.39,696.566C1137.9,696.519 1138.9,697.391 1139.16,697.8C1139.73,698.689 1140.31,699.569 1140.89,700.453C1142.48,702.879 1144.02,705.332 1145.48,707.838C1149.67,715.013 1153.12,723.023 1153.16,731.455C1153.19,738.791 1150.8,745.8 1147.61,752.327C1146.56,754.463 1145.37,756.521 1144,758.468C1143.43,759.272 1142.84,760.053 1142.22,760.818C1142,761.09 1141.29,761.853 1141.55,761.624C1155.28,749.674 1164.57,734.346 1167.55,716.243C1168.11,712.804 1168.28,709.339 1168.3,705.859C1168.31,704.693 1168.31,704.152 1168.3,703.015C1168.29,702.359 1168.75,700.602 1168.26,701.046C1166.53,702.645 1164.79,704.24 1163.04,705.822C1162.29,706.499 1159.82,707.634 1160.8,707.864C1165.73,709.018 1170.83,708.977 1175.82,708.355C1176.9,708.221 1178.18,707.993 1179.31,707.78C1179.94,707.66 1181.28,706.715 1181.19,707.35C1179.84,716.868 1170.99,728.836 1167.23,736.969C1157.64,757.757 1148.34,778.771 1141.03,800.483C1138.28,808.649 1135.78,816.854 1133.6,825.188C1133.29,826.394 1131.75,828.015 1132.71,828.821C1132.99,829.06 1136.45,828.946 1136.84,828.972C1140.27,829.199 1143.73,829.571 1147.05,830.506C1149.2,831.113 1151.31,831.854 1153.4,832.636C1154,832.858 1154.57,833.105 1155.14,833.387C1155.5,833.565 1156.31,834.327 1156.21,833.937C1154.3,826.004 1151.58,818.169 1150.58,810.036C1148.94,796.675 1149.94,781.68 1152.46,768.378C1156.1,749.201 1164.67,731.965 1165.48,712.112C1165.84,703.256 1165.06,694.106 1162.63,685.564C1160.24,677.186 1155.65,669.021 1155.2,660.184C1154.64,648.993 1159.37,639.186 1163.62,629.181" style="fill:none;stroke:rgb(190,38,78);stroke-width:18.75px;"/>
            </g>
            <g transform="matrix(1,0,0,1,1501.2,135.248)">
                <path d="M1175.92,595.75C1174.58,599.2 1173.26,602.665 1171.89,606.104" style="fill:none;stroke:rgb(190,38,78);stroke-width:18.75px;"/>
            </g>
            <g transform="matrix(1,0,0,1,1501.2,135.248)">
                <path d="M1070.92,601.872C1072.03,604.134 1073.24,606.334 1074.49,608.516" style="fill:none;stroke:rgb(190,38,78);stroke-width:18.75px;"/>
            </g>
            <g transform="matrix(0.925183,0.379522,-0.379522,0.925183,2041.18,-450.945)">
                <path d="M1131.96,974.691C1141.31,975.78 1150.62,976.979 1160.01,977.664C1165.21,978.043 1173.97,977.317 1178.8,980.475C1181.53,982.254 1183.43,985.685 1184.95,988.345C1186.48,991.014 1188.88,994.75 1189.16,997.911C1189.87,1006.2 1183.38,1012.83 1177,1016.99C1164.76,1024.96 1148.29,1019.99 1134.59,1022.53C1127.72,1023.8 1121.5,1027.67 1119.41,1034.57C1118.57,1037.35 1118.32,1040.32 1118.39,1043.21C1118.88,1062.63 1135.83,1067.2 1145.62,1081.05C1151.71,1089.67 1148.95,1104.37 1140.38,1110.53C1126.38,1120.62 1110.96,1111.63 1100.86,1100.31C1093.16,1091.68 1088.69,1082.08 1075.78,1084.25C1073.75,1084.59 1071.69,1085.11 1069.83,1086.01C1050.61,1095.34 1061.04,1120.01 1056.62,1136.12C1054.36,1144.32 1044.67,1155.17 1035.2,1154.37C1032.34,1154.13 1028.7,1151.78 1026.4,1150.25C1010.23,1139.47 1014.61,1121.76 1013.53,1104.9C1013.05,1097.23 1011.22,1088.11 1003.22,1085.23C985.794,1078.96 970.12,1094.2 956.738,1103.05C952.083,1106.13 946.316,1112.01 940.472,1112.04C936.919,1112.06 932.289,1108.53 929.666,1106.43C927.704,1104.87 926.034,1102.99 924.653,1100.9C919.298,1092.78 924.117,1081.88 929.651,1075.44C937.104,1066.75 945.199,1058.91 951.609,1049.35C953.474,1046.57 957.459,1041.75 957.374,1038.17C957.283,1034.35 955.653,1029.54 953.703,1026.28C950.085,1020.22 942.229,1018.62 935.667,1018.29C919.993,1017.5 894.973,1026.7 886.215,1008.5C885.1,1006.18 884.417,1003.7 884.178,1001.14C882.937,987.897 893.17,980.775 904.841,978.096C922.563,974.027 948.978,976.149 958.341,956.688C962.519,948.005 956.477,937.657 950.325,932.001C939.782,922.309 923.784,915.46 926.142,898.549C926.485,896.09 927.184,893.653 928.204,891.39C933.546,879.548 945.152,878.933 955.461,884.693C966.285,890.741 973.623,901.182 983.702,908.143C989.583,912.205 997.306,914.802 1004.3,911.864C1024.75,903.274 1014.24,875.179 1016.61,858.714C1018.6,844.847 1031.94,840.015 1044.04,843.09C1053.99,845.619 1059.21,857.572 1059.81,866.942C1060.57,879.032 1054.12,899.082 1064.09,909.199C1066.92,912.066 1070.77,913.979 1074.47,915.421C1081.77,918.258 1088.68,915.525 1094.58,910.726C1103.91,903.118 1109.63,892.052 1118.76,884.277C1127.89,876.491 1140.38,881.666 1145.68,891.651C1147.49,895.064 1149.49,899.021 1149.92,902.944C1152.01,921.593 1127,930.567 1121.04,945.622C1115.79,958.851 1117.76,971.665 1131.96,974.691Z" style="fill:none;stroke:black;stroke-width:20.83px;"/>
            </g>
            <g transform="matrix(0.626573,0.257028,-0.257028,0.626573,2228.6,-26.2359)">
                <path d="M1008.25,985.401C1013.4,973.719 1023.83,963.846 1037.42,964.395C1042.33,964.593 1046.9,966.942 1051.09,969.347C1063.5,976.469 1070.5,986.47 1068.85,1000.87C1068.51,1003.89 1068.1,1007.07 1066.75,1009.83C1065.27,1012.84 1062.91,1015.45 1060.68,1017.91C1057.25,1021.69 1053.32,1025.64 1048.63,1027.81C1042.64,1030.6 1033.69,1029.91 1027.46,1028.2C1021.49,1026.57 1015.03,1023.21 1010.94,1018.47C1004.2,1010.65 1001.91,996.99 1007,987.859" style="fill:none;stroke:black;stroke-width:30.76px;"/>
            </g>
        </g>
    </g>
</svg>
