<?xml version="1.0" encoding="UTF-8" standalone="no"?>
<!DOCTYPE svg PUBLIC "-//W3C//DTD SVG 1.1//EN" "http://www.w3.org/Graphics/SVG/1.1/DTD/svg11.dtd">
<svg width="100%" height="100%" viewBox="0 0 284 198" version="1.1" xmlns="http://www.w3.org/2000/svg" xmlns:xlink="http://www.w3.org/1999/xlink" xml:space="preserve" xmlns:serif="http://www.serif.com/" style="fill-rule:evenodd;clip-rule:evenodd;stroke-linecap:round;stroke-linejoin:round;stroke-miterlimit:1.5;">
    <g transform="matrix(1,0,0,1,-2928.61,-1432.63)">
        <g transform="matrix(1,0,0,1,-778.397,736.568)">
            <g transform="matrix(-0.995302,-0.0968155,-0.0968155,0.995302,6182.6,843.716)">
                <path d="M2329.57,190.133C2324.64,190.011 2321.69,189.448 2317.18,191.659C2313.91,193.26 2311.11,195.889 2308.86,198.705C2307.07,200.95 2306,203.577 2305.3,206.359C2304.03,211.465 2304.06,217.624 2307.16,222.124C2314.28,232.475 2333.68,233.599 2341.71,224.065C2347.74,216.898 2347.74,203.713 2341.51,196.649C2338.56,193.295 2333.8,191.276 2329.57,190.133Z" style="fill:none;stroke:black;stroke-width:20.83px;"/>
            </g>
            <g transform="matrix(-0.995302,-0.0968155,-0.0968155,0.995302,6180.42,848.096)">
                <path d="M2323.23,158.527C2307.73,158.993 2296.21,162.266 2289.61,167.76C2285.44,171.237 2283.02,176.473 2280.17,181.105C2272,194.404 2270.28,213.201 2275.47,227.928C2285.19,255.527 2320.59,268.689 2346.36,256.218C2360.81,249.223 2370.05,235.996 2375.3,221.21C2380.67,206.086 2378.2,185.533 2367.61,173.296C2357.72,161.882 2339.63,158.033 2323.23,158.527Z" style="fill:none;stroke:black;stroke-width:20.83px;"/>
            </g>
            <path d="M3814.9,805.455C3802.71,805.455 3781.51,805.572 3777.5,805.455C3767.38,805.159 3757.25,805.861 3747.13,806.045C3740.22,806.171 3733.88,805.69 3728.25,801.323C3718.3,793.606 3716.47,779.158 3717.82,770.272C3720.29,753.901 3720.31,755.074 3728.25,739.318C3731.23,733.39 3734.01,727.422 3737.65,721.846C3742.41,714.543 3752.77,704.415 3762.41,706.847C3764.58,707.392 3766.68,708.327 3768.35,709.827C3769.67,711.011 3770.89,712.348 3771.81,713.872C3777.87,723.967 3767.58,733.7 3762.26,741.334C3760.66,743.639 3752.51,757.624 3750.36,761.212C3747.62,765.786 3749.38,765.064 3747.36,770.272C3745.11,776.073 3748.58,777.976 3748.92,777.987C3752.32,778.099 3755.71,778.205 3759.11,778.234C3771.66,778.34 3854.38,778.565 3869.31,778.624C3879.83,778.666 3890.34,777.832 3900.85,777.578C3913.38,777.277 3925.91,778.34 3938.46,778.234C3941.86,778.205 3945.25,778.099 3948.65,777.987C3948.99,777.976 3952.46,776.073 3950.21,770.272C3948.19,765.064 3949.95,765.786 3947.21,761.212C3945.07,757.624 3936.91,743.639 3935.31,741.334C3929.99,733.7 3919.7,723.967 3925.76,713.872C3926.68,712.348 3927.9,711.011 3929.22,709.827C3930.89,708.327 3932.99,707.392 3935.16,706.847C3944.8,704.415 3955.16,714.543 3959.92,721.846C3963.56,727.422 3966.34,733.39 3969.32,739.318C3977.26,755.074 3977.28,753.901 3979.76,770.272C3981.1,779.158 3979.27,793.606 3969.32,801.323C3963.69,805.69 3957.35,806.171 3950.44,806.045C3940.32,805.861 3930.19,805.159 3920.07,805.455C3911.88,805.694 3903.74,806.001 3895.54,805.721C3889.79,805.525 3884.03,805.98 3878.28,806.045C3870.82,806.129 3869.74,805.264 3862.3,805.721C3851.5,806.384 3825.73,805.185 3814.9,805.455Z" style="fill:rgb(72,72,72);stroke:black;stroke-width:20.83px;"/>
            <g transform="matrix(1,0,0,1,2350.92,-432.39)">
                <path d="M1488.55,1226.21C1476.99,1227.12 1465.73,1225.83 1454.23,1225.24C1441.73,1224.6 1429.17,1224.65 1416.65,1224.56C1410.92,1224.52 1405.18,1224.49 1399.45,1224.47C1395.4,1224.46 1390.36,1224.79 1387.21,1221.65" style="fill:none;stroke:rgb(72,72,72);stroke-width:10.42px;"/>
            </g>
            <g transform="matrix(1,0,0,1,2350.92,-432.39)">
                <path d="M1609.12,1222.03C1601.07,1223.44 1593.04,1224.95 1584.85,1225.3C1572.37,1225.83 1559.85,1224.57 1547.37,1224.51C1536.37,1224.45 1525.43,1225.79 1514.44,1225.74C1508.13,1225.71 1502.32,1223.14 1496.09,1222.75C1490.78,1222.42 1485.69,1224.08 1480.59,1225.3C1473.99,1226.87 1467.8,1227.9 1461.86,1231.5C1457.89,1233.91 1457.04,1238.57 1456.68,1242.86C1456.19,1248.81 1456.13,1254.71 1456.96,1260.62C1459.08,1275.64 1468.38,1294 1483.78,1299.08C1490.92,1301.44 1497.91,1300.85 1505.23,1299.53C1524.32,1296.09 1532.95,1278.47 1533.63,1260.08C1533.85,1254 1530.91,1248.09 1531.34,1242.14C1532.13,1231.36 1542.06,1224.75 1551.97,1224.58" style="fill:none;stroke:rgb(72,72,72);stroke-width:10.42px;"/>
            </g>
            <g transform="matrix(-1,0,0,1,5338.96,-432.924)">
                <path d="M1529.44,1268.17C1529.66,1262.09 1530.91,1248.09 1531.34,1242.14C1532.13,1231.36 1542.09,1225.52 1552.01,1225.35" style="fill:none;stroke:rgb(72,72,72);stroke-width:10.42px;"/>
            </g>
            <g transform="matrix(1,0,0,1,2350.92,-432.39)">
                <path d="M1458.83,1258.88C1461.96,1250.87 1463.81,1244.5 1470.71,1238.64C1480.01,1230.73 1496.92,1223.97 1509.31,1227.99C1514.39,1229.64 1518.56,1233.71 1521.9,1237.7C1525.74,1242.29 1529.43,1248.17 1530.86,1254.11C1533.04,1263.2 1530.45,1273.83 1525.68,1281.71C1521.81,1288.11 1515.62,1291.84 1509.31,1295.48" style="fill:none;stroke:rgb(72,72,72);stroke-width:10.42px;"/>
            </g>
            <g transform="matrix(1,0,0,1,2350.92,-432.39)">
                <path d="M1463.64,1239.44C1472.72,1230.76 1486.12,1224.93 1498.8,1224.93C1503.7,1224.92 1508.37,1226.12 1513.09,1227.31C1516.93,1228.28 1520.78,1229.24 1524.65,1230.11C1524.96,1230.18 1528.22,1230.56 1528.35,1230.94C1528.69,1231.93 1528.17,1233.82 1528.11,1234.86" style="fill:none;stroke:rgb(72,72,72);stroke-width:10.42px;"/>
            </g>
            <g transform="matrix(1,0,0,1,2350.92,-432.39)">
                <path d="M1526.57,1282.48C1523.83,1285 1521.19,1287.78 1518.08,1289.84C1512.54,1293.53 1505.27,1295.41 1498.67,1295.59C1481.17,1296.04 1465.31,1284 1461.36,1266.87C1459.82,1260.16 1462.41,1248.5 1464.53,1242.05" style="fill:none;stroke:rgb(72,72,72);stroke-width:10.42px;"/>
            </g>
        </g>
    </g>
</svg>
