<?xml version="1.0" encoding="UTF-8" standalone="no"?>
<!DOCTYPE svg PUBLIC "-//W3C//DTD SVG 1.1//EN" "http://www.w3.org/Graphics/SVG/1.1/DTD/svg11.dtd">
<svg width="100%" height="100%" viewBox="0 0 332 235" version="1.1" xmlns="http://www.w3.org/2000/svg" xmlns:xlink="http://www.w3.org/1999/xlink" xml:space="preserve" xmlns:serif="http://www.serif.com/" style="fill-rule:evenodd;clip-rule:evenodd;stroke-linecap:round;stroke-linejoin:round;stroke-miterlimit:1.5;">
    <g transform="matrix(1,0,0,1,-3286.25,-1865.45)">
        <g transform="matrix(-1,0,0,1,5777.13,1828.63)">
            <g>
                <path d="M2185.23,63.053C2186.78,70.16 2188.98,77.192 2191.08,84.151C2192.93,90.259 2194.05,95.713 2197.93,100.976C2202.82,107.588 2209.93,112.092 2217.6,114.806C2221.43,116.164 2225.44,117.214 2229.53,117.276C2239.79,117.432 2250.17,113.647 2259.81,110.527C2269.85,107.275 2280.23,104.53 2290.5,102.066C2317.44,95.604 2344.92,92.579 2371.93,86.493C2383.68,83.844 2395.16,80.181 2406.79,77.064C2415.35,74.77 2424.1,73.045 2432.57,70.459C2439.12,68.461 2445.51,66.149 2452.14,64.391C2454.44,63.783 2456.74,63.215 2459.05,62.686C2459.76,62.525 2460.46,62.368 2461.16,62.205C2461.55,62.114 2462.72,61.845 2462.33,61.933C2454.37,63.724 2446.85,66.45 2439.01,68.677C2428.71,71.605 2418.23,74.077 2407.81,76.556C2389.23,80.974 2370.91,86.088 2353.01,92.705C2347.39,94.784 2341.26,96.62 2336.81,100.833C2335.31,102.258 2334.32,104.146 2333.66,106.095C2333.4,106.884 2333.19,107.691 2333.03,108.508C2332.97,108.84 2332.62,109.724 2332.88,109.509C2332.88,109.507 2336.43,106.777 2336.51,107.062C2338.77,115.502 2338.22,125.255 2338.16,133.847C2338.14,135.765 2338.14,137.684 2338.12,139.602C2338.06,147.468 2337.8,155.328 2337.76,163.195C2337.74,166.677 2337.11,171.025 2338.3,174.492C2338.78,175.881 2341.08,176.667 2342.34,177.261C2346.4,179.184 2350.43,180.831 2353.88,183.84C2364.21,192.832 2362.6,211.502 2357.42,222.504C2353.34,231.175 2344.01,242.163 2334.04,244.329C2322.93,246.742 2311.3,239.448 2302.59,233.35C2298.63,230.579 2295.03,227.492 2292.62,223.201C2290.58,219.551 2289.83,214.992 2289.08,210.889C2288.2,206.017 2287.89,200.578 2288.91,195.707C2291.36,183.929 2303.8,176.107 2313.98,171.871C2316.6,170.784 2319.32,169.244 2322.22,169.531C2323.01,169.61 2327.8,171.194 2328.31,170.321C2330.83,165.99 2330.31,160.741 2329.73,155.978C2328.81,148.297 2327.49,140.67 2326.48,133.002C2325.7,127.13 2324.88,121.25 2323.35,115.517C2322.94,113.966 2322.54,110.816 2321.32,109.647C2321.05,109.39 2318.64,109.966 2318.1,110.022C2314.53,110.399 2311.06,111.172 2307.58,112.06C2305.77,112.522 2303.97,113.013 2302.16,113.431C2301.3,113.629 2299.29,113.152 2299.57,113.988C2303.11,124.499 2305.22,134.166 2305.8,145.46C2305.99,149.306 2306.21,153.141 2306.52,156.98C2306.61,158.142 2306.71,159.304 2306.81,160.465C2306.87,161.126 2306.47,162.804 2307.03,162.446C2308.69,161.38 2309.95,158.687 2310.81,157.007C2313.95,150.923 2316.92,144.349 2316.47,137.366C2316.2,133.288 2314.41,129.01 2315.23,124.918" style="fill:none;stroke:rgb(0,200,111);stroke-width:20.83px;"/>
                <g transform="matrix(1,0,0,1,-0.120985,-4.00268)">
                    <path d="M2329.57,190.133C2324.64,190.011 2321.69,189.448 2317.18,191.659C2313.91,193.26 2311.11,195.889 2308.86,198.705C2307.07,200.95 2306,203.577 2305.3,206.359C2304.03,211.465 2304.06,217.624 2307.16,222.124C2314.28,232.475 2333.68,233.599 2341.71,224.065C2347.74,216.898 2347.74,203.713 2341.51,196.649C2338.56,193.295 2333.8,191.276 2329.57,190.133Z" style="fill:none;stroke:black;stroke-width:20.83px;"/>
                </g>
                <path d="M2354.66,103.147C2386.24,94.618 2419.05,88.016 2450.91,80.527C2456.24,79.272 2468.38,75.382 2473.94,72.308C2477.26,70.475 2483.4,63.511 2478.85,55.284C2469.43,38.238 2442.94,52.994 2428.88,56.799C2413.8,60.877 2380.31,68.935 2361.71,72.308C2349.06,74.602 2337.8,78.004 2325.17,80.445C2297.86,85.723 2271.09,92.989 2244.29,100.362C2228.72,104.645 2211.84,101.804 2205.8,84.36C2202.41,74.552 2203.01,63.421 2195.74,55.284C2184.95,43.213 2167.5,55.906 2170.64,71.009C2174.74,90.717 2173.04,99.238 2185.42,112.026C2193.39,120.26 2200.81,126.701 2211.95,130.619C2220.17,133.512 2227.98,134.191 2236.47,132.587C2246.03,130.783 2262.13,124.513 2271.54,122.737C2275.4,122.008 2279.23,121.146 2283.08,120.363C2283.54,120.268 2286.35,119.583 2286.41,119.716C2287.64,122.535 2288.13,126.17 2288.8,129.159C2290.56,136.954 2289.33,146.417 2291.87,153.974C2292.12,154.7 2294.88,160.954 2294.47,161.819C2293.5,163.87 2291.02,165.946 2289.61,167.76C2286.29,172.059 2283.02,176.473 2280.17,181.105C2272,194.404 2270.28,213.201 2275.47,227.928C2285.19,255.527 2320.59,268.689 2346.36,256.218C2360.81,249.223 2370.05,235.996 2375.3,221.21C2380.67,206.086 2378.16,185.574 2367.61,173.296C2363.83,168.903 2359.42,164.891 2354.66,161.585C2354.15,161.231 2349.68,158.964 2349.61,158.368C2349.01,153.423 2350.8,147.41 2351.32,142.378C2352.72,129.027 2352.95,116.464 2354.66,103.147Z" style="fill:none;stroke:black;stroke-width:20.83px;"/>
            </g>
        </g>
    </g>
</svg>
